<mxfile host="app.diagrams.net" modified="2024-05-28T10:53:32.580Z" agent="Mozilla/5.0 (Windows NT 10.0; Win64; x64) AppleWebKit/537.36 (KHTML, like Gecko) Chrome/121.0.0.0 Safari/537.36" etag="3L7CfOoRt3LfacQlS5Tl" version="24.4.9" type="device">
  <diagram id="CQP5ff5jVa2nEoMukuVH" name="PÃ¡gina-1">
    <mxGraphModel dx="1434" dy="782" grid="1" gridSize="10" guides="1" tooltips="1" connect="1" arrows="1" fold="1" page="1" pageScale="1" pageWidth="827" pageHeight="1169" math="0" shadow="0">
      <root>
        <mxCell id="0" />
        <mxCell id="1" parent="0" />
        <mxCell id="E4pnwiunGybAY2FwVB-c-3" value="" style="shape=image;html=1;verticalLabelPosition=bottom;verticalAlign=top;imageAspect=1;aspect=fixed;image=data:image/png,iVBORw0KGgoAAAANSUhEUgAAAfQAAAH0CAYAAADL1t+KAAAACXBIWXMAAA7EAAAOxAGVKw4bAAAE8GlUWHRYTUw6Y29tLmFkb2JlLnhtcAAAAAAAPHg6eG1wbWV0YSB4bWxuczp4PSdhZG9iZTpuczptZXRhLyc+CiAgICAgICAgPHJkZjpSREYgeG1sbnM6cmRmPSdodHRwOi8vd3d3LnczLm9yZy8xOTk5LzAyLzIyLXJkZi1zeW50YXgtbnMjJz4KCiAgICAgICAgPHJkZjpEZXNjcmlwdGlvbiByZGY6YWJvdXQ9JycKICAgICAgICB4bWxuczpkYz0naHR0cDovL3B1cmwub3JnL2RjL2VsZW1lbnRzLzEuMS8nPgogICAgICAgIDxkYzp0aXRsZT4KICAgICAgICA8cmRmOkFsdD4KICAgICAgICA8cmRmOmxpIHhtbDpsYW5nPSd4LWRlZmF1bHQnPkpVTEhPIC0gMTwvcmRmOmxpPgogICAgICAgIDwvcmRmOkFsdD4KICAgICAgICA8L2RjOnRpdGxlPgogICAgICAgIDwvcmRmOkRlc2NyaXB0aW9uPgoKICAgICAgICA8cmRmOkRlc2NyaXB0aW9uIHJkZjphYm91dD0nJwogICAgICAgIHhtbG5zOkF0dHJpYj0naHR0cDovL25zLmF0dHJpYnV0aW9uLmNvbS9hZHMvMS4wLyc+CiAgICAgICAgPEF0dHJpYjpBZHM+CiAgICAgICAgPHJkZjpTZXE+CiAgICAgICAgPHJkZjpsaSByZGY6cGFyc2VUeXBlPSdSZXNvdXJjZSc+CiAgICAgICAgPEF0dHJpYjpDcmVhdGVkPjIwMjQtMDUtMjg8L0F0dHJpYjpDcmVhdGVkPgogICAgICAgIDxBdHRyaWI6RXh0SWQ+MGUyNjUwYWQtZTk4My00NTc5LThlYTgtMTg2OTI0ZmYzN2RlPC9BdHRyaWI6RXh0SWQ+CiAgICAgICAgPEF0dHJpYjpGYklkPjUyNTI2NTkxNDE3OTU4MDwvQXR0cmliOkZiSWQ+CiAgICAgICAgPEF0dHJpYjpUb3VjaFR5cGU+MjwvQXR0cmliOlRvdWNoVHlwZT4KICAgICAgICA8L3JkZjpsaT4KICAgICAgICA8L3JkZjpTZXE+CiAgICAgICAgPC9BdHRyaWI6QWRzPgogICAgICAgIDwvcmRmOkRlc2NyaXB0aW9uPgoKICAgICAgICA8cmRmOkRlc2NyaXB0aW9uIHJkZjphYm91dD0nJwogICAgICAgIHhtbG5zOnBkZj0naHR0cDovL25zLmFkb2JlLmNvbS9wZGYvMS4zLyc+CiAgICAgICAgPHBkZjpBdXRob3I+R2Fsw6NvIENvbSBUw6puaXM8L3BkZjpBdXRob3I+CiAgICAgICAgPC9yZGY6RGVzY3JpcHRpb24+CgogICAgICAgIDxyZGY6RGVzY3JpcHRpb24gcmRmOmFib3V0PScnCiAgICAgICAgeG1sbnM6eG1wPSdodHRwOi8vbnMuYWRvYmUuY29tL3hhcC8xLjAvJz4KICAgICAgICA8eG1wOkNyZWF0b3JUb29sPkNhbnZhIChSZW5kZXJlcik8L3htcDpDcmVhdG9yVG9vbD4KICAgICAgICA8L3JkZjpEZXNjcmlwdGlvbj4KICAgICAgICAKICAgICAgICA8L3JkZjpSREY+CiAgICAgICAgPC94OnhtcG1ldGE+rua7/QAAgvZJREFUeJzs1cENwCAQwLDS/Xc+huCBiOwJ8suamfkAgKf9twMAgHOGDgABhg4AAYYOAAGGDgABhg4AAYYOAAGGDgABhg4AAYYOAAGGDgABhg4AAYYOAAGGDgABhg4AAYYOAAGGDgABhg4AAYYOAAGGDgABhg4AAYYOAAGGDgABhg4AAYYOAAGGDgABhg4AAYYOAAGGDgABhg4AAYYOAAGGDgABhg4AAYYOAAGGDgABhg4AAYYOAAGGDgABhg4AAYYOAAGGDgABhg4AAYYOAAGGDgABhg4AAYYOAAGGDgABhg4AAYYOAAGGDgABhg4AAYYOAAGGDgABhg4AAYYOAAGGDgABhg4AAYYOAAGGDgABhg4AAYYOAAGGDgABhg4AAYYOAAGGDgABhg4AAYYOAAGGDgABhg4AAYYOAAGGDgABhg4AAYYOAAGGDgABhg4AAYYOAAGGDgABhg4AAYYOAAGGDgABhg4AAYYOAAGGDgABhg4AAYYOAAGGDgABhg4AAYYOAAGGDgABhg4AAYYOAAGGDgABhg4AAYYOAAGGDgABhg4AAYYOAAGGDgABhg4AAYYOAAGGDgABhg4AAYYOAAGGDgABhg4AAYYOAAGGDgABhg4AAYYOAAGGDgABhg4AAYYOAAGGDgABhg4AAYYOAAGGDgABhg4AAYYOAAGGDgABhg4AAYYOAAGGDgABhg4AAYYOAAGGDgABhg4AAYYOAAGGDgABhg4AAYYOAAGGDgABhg4AAYYOAAGGDgABhg4AAYYOAAGGDgABhg4AAYYOAAGGDgABhg4AAYYOAAGGDgABhg4AAYYOAAGGDgABhg4AAYYOAAGGDgABhg4AAYYOAAGGDgABhg4AAYYOAAGGDgABhg4AAYYOAAGGDgABhg4AAYYOAAGGDgABhg4AAYYOAAGGDgABhg4AARsAAP//7N1nfJXnme/739NWl5YK6r1LCCQkuunGBuOGux2XOM6kZyZT9tQ9mZ3JyUySmTnZc1ImycR27DjuLbbppjfTRBWSEOoNSQh1adWnnBfCJBk7DrYBFe7v5yP8AqF1Pxjpv+52XSLQBUEQBGEKEIEuCFOYaZr4/H4sa7xHIgjC1aaO9wAEQbiyTNOkf2CQAweP8PobbxEIhYmK8vLZRx6kdGYxLpcTSZLGe5iCIFxhItAFYYrw+f1U1Zxh1+59VJ+ppedCPzU1tViSgtvjprd/gKgIN3PnlLFi2VIyMtKwadp4D1sQhCtEsiyxGCcIk5VpWpzr6uLAwUOcrq6hqaWN2rp6OjvPY3e40GwOLEvCkCwUy8Q3MkRWRhpFBXlkpKcyb045ZbNKifJGilm7IExyItAFYRIaHfVxtq6eiuMnaGltpeL4cRqbWrCQUDU7um5iIWOzOzEsiVA4hCbLYBrIGBh6CKfDRlFBPkWFBRQW5DG7vIz0tBTsNtt4P54gCJ+ACHRBmAQsC8LhMD09vZw6fZqm5hYqq6rYf+AQwWAAWVGwkNB1E5fHQ2pKKoYJ9c2tyIoNXdcpzs/F5xuhraUZyzSw2zQMQycUCpGSkswNCxdQmJ9LTlYmRUUFxEZHIcvi3KwgTBYi0AVhAjMMk8HhIVrbOmhqauZMbQPvbt1Oa2sLsiKjqCqWZRIKh0lJSSEpKYnMjHTKy8ro7unj//745zhcHsLhMN//539gaHCAQ4cOcf78edra2/H5fKiahmlahMIhVFWjuKiQG5cvJTszjZysLFJTk3E5xUE6QZjoRKALwgQUDIbo7OqmtaOD+sYWdu3ex4FDhwgGw0S43cjy2Izd7XIQHR2FIsusXLmCu9feQWZ6GoZh8u6OPXzxa39BpDeaUDDIri2/IT01iXBI58SpSp5/4UVqas8SDIUZGh5BN0wsJEzTJBQMYbeprL75JpYvWURyUgKZGenExEajqeIsrSBMROI7UxAmCMM0GR0Z5UJfP+0dnbzx9nrWb3mXUCiM0+5AVmy43XZUTcNh17BpCoX5uTz68APMLi/D43Zf+lp6OIBlGKgSKBgYIT/vz68dDhsL5s1m/txyus/3sOXdbWzeup3O7h6GhkcJBIM4nU5M02TDpq28/dZ6oqOjeOThB1m8aD6pKUnExsTgcNjFrF0QJhAxQxeEcWRZFoZh4PP5OX+hj73vHeKXzzxPc2sr7sgIUGR03cCm2tBUFT0cItLj5otPPMaaVTcSHxeLoigf+Lp+f4Ct23bx53/1N3i9UfT19bJ7xxbS01JQlA/uiwdDIRoaW3hn42beWbeJwcFhVE1DAoKBIJpNZWRkhMHBQW5euYInHn+UmcWFREZG4HQ6UMReuyCMOxHogjBOTNMkEAxR19DIT/77STZt3obN7sSm2bEs0C0d3dAxTZMobyS33HwTn3vkIfJzs9A+JJR/l98fYNv2nfzpN/6KiAgPPt8oO7dtITX1wwP9fZYFo34/x45X8rNfPM2Bg4eQJBmX2w0X5/iGoTM8PERsTAwP3n8Pjz70ACnJCSiKLGbsgjCOxJK7IFxjhmHQ3XOBrdt38Yunn6W3vw+Hw01kpJdwWEeWwLAMgn4/paUz+PznHmPB7DKioyKx22yXNxuWxj5M08CEi6fV/3jYShK4nQ5umD+b2WUz6O6+wJ79B/j/fvIzLvT24XK5kGWZiIhIwmGd5379Ii+/+ArFxdN57LGHWL50MS6nQwS7IIwDEeiCcA1YwODgEEcqjvHGb97h+MlKdMMkpOuYOujhMIokM+L34Y6J5q61d7LqphvJSE0hOtqLw27/eFfIrLHZtiXLSLKKL6hjSdblZDqSJKGqCqrqIiM9lfvibmfZkhtoaGrh2edeYM++/aiqisftRsdCB6pqa/nn73wPTZG4ZfVq7rrzdvJys3E4HIhsF4RrQwS6IFxF4bBObV09Gzdv5eDho/T29dM/MIiu68iyjGmaSJLE+e5uVq5Yyp133Ep+Xg7JiYnExkSjabZPHIiSJI9VipMVwpaFJX38fW5FkfF43LjdLhIT4sjOSKOzq5tjJ06yfsMmKqvOEBnpxTAsgiGdoUCATVt3sn3XPrzeCO64bQ2rbrqR1OTEj1zqFwTh0xOBLghXwYW+fja/u53d+96jq/s8PT19DAwOIUkypgl6SMcwdVJTknno/rtJS00kKyOdjIx0IjzuT1/QRZIwgaBu4FBUUDQua3r+B7+chNPhIDsrg/T0VHJzspg/p5zG5jaOnahkw6bN9A8MYLc7GRweIRQK0XWhj94XX+OdTdsoyMtm9cplLJw/5/dO4wuCcOWIQBeEK8CyLIKhMHV1dbz51tt0dPXQ1NpOW/s5dF1HVW1YgK7rREV6WTh/GSUzikhPS2ZWyQxiY6JR1Q+eVv90JEBGN0xkRb1i+9qqopAQH0d8XBwzZhRTVjqT+XPL6Ojs4sChCo6eOIlpWSiSzPkLfbR1dNLS1kZjQwMbNmykoCCX1TffREZGhjgdLwhXkAh0QfgUwrpOd08vh48c4+ix43R2dVFx7Di+QBBVVTFNC9M0sdsU8nNzKZ5eRG52FqUzi8nOSsftcl61sUnSxQ/LRJGsTzE//8Nf3+V0UJCfQ25uFsPDo5SVzqT6TC2Nza1UHD1B+7lONEUmGAhSVXOWquoajldWcbq6jvj4OJYvW0LpzGIir8SqhCBc50SgC8LHZJomA4PD1Dc2UVVzhrqGZo6fqKSmtg5V01BVBcuCUDBEamoKhfm55OdmM7N4OiUziomPm3YN95NNVFlCskywzKv2KoosE+WNYMkN81k4fy5tbR0cmllM7dkG6hsaqaqppX9wELvDSWfPAB079mCaBnWNzWRnZlCQl8OskhlkZaTjFKfkBeETEYEuCJcpEAzS3t5BfUMTDY3NnKqq4fipSnou9CIhY7PbAJlgIEDJjCJSkhMoKy1h0YJ5ZGVm4HTYr+FoLaRLHyBx7cpNqIpMVmYamZlpDA+NUFlVw57971HX0ERbRxdn6upx2G047TaOVBxn27Yd5OflMqeshKKCPPJyc8jPzyM+bhqqKDMrCJdNfLcIwkewLIvevn7qGxo519nJ8ROVHDh4mHOdXUiyDJKEpqpYpklUhJvMzHQcNht/8sRjE2YpWYJxuTomAZGRHhYtnMv8eeV0dp5n++49bN2+k6HhEc6f76F/YABvZATDw8Os27CJd9ZtoHh6EUsW30BBfh4ZGelkZWbgcbvErF0Q/ggR6ILwP1iWRSis09V9nrb2DqrPnOX1N9+mpaUFWZbHAlqSkCRw2G2kJEYTOy2W2WWzuP++u0lNmlhXtCZCKUhVUUhLTeJzjzzIQ/feRXXtWV5+9Q1qamoYGBymf2AAVbMhSRJ1TS2crqlFlmXmz5vLHbevISczg9TUZKbFxqB+SKlbQRBEoAvCJYZh4PP7uXChn7bObl5/ax0vvfwqHo8bl9OJotnQw6GxSmkeN1HeCGYUT+eetXcwZ3YZdvu1XFK/PJY19gZlInE47JSXzqSsZAbDI6Ns3baDV15/k87u84yMjBIKG7gjIrEsi0NHj7Nj73vExkTz8EP3s+rGZSRMiyEmJvrjF9sRhClO1HIXrmuXmqP4/Zzv6eW9QxX84pkXOFPfiMflxOl0osgQDPhx2O1ImBQV5HPPXXewYuli4qbFTsilYH8gwLYdu/nKN/4XXm8UQ0MD7N+xhdSUpAl5VUw3TM51dbNh4xbWbdxMc0sbummiKCqSJBMMhwmHw4yODrNwdjlf/eLnKC2ZQXRUFA6HHVlWREU64bonAl24rvn9QU6eruLXz7/EuvWbkFUNj9dLMKSPBbgEPd3daJrK5z77MJ954F5yszMmfE/w3w30yEgvw8ODEzrQf9eoP8ChI8d4+lfPs3f/ASRZRrPbcTqcSKaEqih0tLWjaSpf+Pxnuf/eteRkp2O3ffKqeoIwFYhAF647umHS0trGug2b2Lh5C61t7UiSPFbFzbJAkjFNi+6ubpYtX8LXvvAEJTOLiPJebI4yCfZwJ3OgW5aFro+tmnSfv8C2nbt55tcv0traRoQnEpvqRFVsWBiEwyFkCaYXF3DvXXewfOkNF1vKTuxnFISrQQS6cN0YGh5hw6YtrNuwhabmZkLhMKFQaKzDmSxhWSajI6OoisLXv/olli1dSmJCHLEx0dgdduRJNP2bzIH+u3TDYHTUR8+FCzQ1tbJ+4xaefuoFkpPTkFTpYvEeHYfDjk1TcbudzCqdwV133sqC+XOxaRN7JUUQriTxr12Y0sLhME3Nbfz4v35OY3MLQyOj9Pf1Y108+20YY7M8u93G7PIy1t5+K1kZaaSnpRETE3MVyrEKH4eqKHgjI4iM8JCSlER+Xg733nUnrW2dvPDSKzQ0Nl/sGW8QkCVGfKPse+8gJ06dJNobQXlZKU88/lmSEhMm5FkHQbiSRKALU45hGHSf72Hnrr28s24jhgUtrW30Dw5is9lRVZVgMEgoHKIwL5fly5Yws7iQ1JRksjIziPB4xvsRhP9BkiScTgcZ6amkpaYwODRMQX4m7ec6OXr8JHv3vUdHZzcKMsM+k8HhYTq7znOus4fq6noUReKJxx+jvHzWxeY3ItyFqUcEujCl+P0Bdu3Zx8uvvE7X+QvU1TeiaBpRXi/eyCj8fj+xsbGUzyolPy+bvOws8vNzSIiPm/AH3YQxsiwRHRXJ3DlllASLKZk5nUUL51HX0MTxk5VUnznLyPAIlglDIwEqjleih8MMDweI8nr527/5Bvl5WZPiLIQgfBziJ5gwpZypreOtdzaye99BnG43DqcbZBnDGmukcuONy1kwt4zyWSVkpKficjqvi5PRU/UZ7XYbOVmZZGWkM2/ubObNKefo8VPsP3CEYycqUSQFzaaiag4qT9cSCAQpKZlBTPTdJCTEjffwBeGKmjynYwThjwiFwpyorOL4qdM43R5kWUWSVSwkwrpJSDdxudwkJyeTmBB/sQnIeI9auBJkWSbS4yExIZ6YmGhUTUVRVUzzt1XtNYeDyKho1m96l8bmFgzDGO9hC8IVJWbowpTR0jZWprV/cBhV1dAtME0DJBnJkpAVle0793Kuq4s5s2ZQVJBLYUEeyYmJaOI09KQVCARpaGyitq6eU6drOHqykta2DixMLAnCRhhd17HZbGCZNDQ1UnOmlsL8XKKjo8Z7+IJwxYifYsKUYJomh48cpeL4KVTNhsvlwuv1Mi02hlF/iKbmFgIBP5auc/DgEfbs3k1udiY3Ll9M+awSsrMyycrMxG63jfejXBVTcSHC5/NTVV1DW1sHO/fu4+DhCvr6B8dqwisyumHicXvIyszA5XRQ39jE8NAQDredPfv2UTpzOuVRs8Tpd2HKEIEuTAlDQ8OcqqqiubkZTbPjdjl58N47efiBu6k4dopnf/0SnV1d9PcN4Pdb2FQ357t7ePbZ53lBU1m2dDH333cP6WmppCQnTame3NLv/DrZGabJ8PAoLa2ttLad479++nPO1jUgq8qlGwyyBFGREcTHx5GdmckTjz9CbnYm//rv/8m6DZsJ6ia7du9l2eJFFBYU4Ha7xvuxBOGKEIEuTHoWcPTEKVpa29FUFUMPk5GaxP13306E28mKJfNZvng+dQ1N/PKXz3Gk4iijo358Pj92uwtJVti28wBbdxygdNZ0vvQnj5Gfm01ifDwOh3PyX3Ga5MMH0HWd4ZFROjq7OH6qmn/7wY8ZHh7G6XRgd0egSBKyDHZJIi0lmVvXrGLt2ttJjI9Dksaqz33pic/y7rtbCQZBczg5WV3L3JZWZkwvHO/HE4QrQgS6MOmFQmHeXreBo8dP4HK5kSWJ+GkxRHsjL32OJEF+bhbf/+636Oo6z8ZNW3nzrXU0t7QBEnabE9OCquqzfPVP/4roKA/f/N//wPy5c4iJ8mK32yZtZy8JadKuNui6gT8QoP3cOdZv2sKPf/YLDEsjIjIGm8NFIBTEZbcRCPgpL53JYw8/yLJli4iM+P1aApIkkZaahNfjYmRkBBSVTe9uZ+b0Igrz80QBIWFKEIEuTHrVNbX0DQxi02z4R0dZMH8OX/7S5//gCfbExHie+NzD3H//Xezdf5Cnnv4V+w8cweuNxuVyoigyw6Nh/vTP/xZZlvnaV77Aww/eR1pK0qSrES5JTNo7a8FgaKxxzouvsHnLVlTNRmRkNKZpoRtBDD1IwDfC7avu4LMPP8iM4iKcDvsffPMiSxL//E//yD9+6//hwsAQ/kCQlrZ2us/3kJKceI2fThCuPBHowqT3y189z/ETlUiSRDAYwO1ykJ2R/pF/RpIkPG4XN61YwoK55Zypref5l17j1y+8QmJyKm6XF4/LQygU5vkXXuPV199i7uwyHn7oPubPLcfldFyjp/v0Jluc9w8MsmPnHn7z9gaqa2oJ6WFsNidYEPIH8AcDDA4O8Nd/+Q3uWXs7aSnJuFxOVEX5oysRc+eWYxo6Pp8PRdVYt34jaclJfOGJxybr+x5BuEQEujCptXV0MjA4jGWBrodYungBjzx0/2UtoUqShM1mIzpaY3Z5KVlZ6Tz2yIMcOHycn/z0acJ6ELfLBZJFMBSi4sQJTp2uJDY6mjtuX8OD999DTJT3GjzlpyRJk2KWfq6zmx/95GccP15J/8AggUBwrOK+OTZbD+sG8fGxfPNr/4vZZSUkJsbjjYxE/RgV/uw2G1//2pd58tkX6Dp/geHRUZpbW+nrHyA2RlxhEyY3EejCpPbDn/yMquozWEAg4Cc1NZlZpSUf62tIkoTdbiMpMYFp02LJzspgwdwyGppaePHV16k9U4uiqfj9FgEshkdG+NULL7Nt5y7KS0t59DMPkJ6WOmEzUxo7FTbew/hQhmFSXVPLz/77Kbq7e+js6qa/fxDTNNE0G4ZhoKkaixYu4LbbVpGbk0F2Zjpeb+QnPhewcsVynn/5Nfw+H6qqcvBQBZu3bOWRz9x/hZ9OEK4tEejCpDUwOExtbT0+XwALKC2ZyQ0L5o/Nqj8hTVVJiJ9GfFws04vyyc/NpL6hkQOHK9j33gGGh4ex2Wz0DwzS3z9Ie0c3p2vOkpmRwcMP3UdRfg7qJNtnv9Ysy2JweISKo8d58611dJ+/QF1dA7quI8sKliRhmAYpcdNYtGgBs8tLycnKJDMrHY/H/am3EGJjorlx+TIGh31c6O3jXGcXVdVn8Pn8uFzOK/GIgjAuRKALk9a6DZsZHBoBJEKhALNKSphdXn5FTnRLkkSUN4L5c8uZMb1wrAHIgjmcOHWag4craGs/h01zMDQ4wrFjlZw500h7x3mmxUazZvWNzJtTijfCM0FOl1u/95/xYhgmXd097D94mN179tHVfZ7qmlpM00RRFHRDJ+gbZeaMYhbMm0PJjGKmF+WTlppyRQv+yLLMLTffRMWxk3R2dqEqCvUNTew/cIibVy6/Yq8jCNeaCHRhUvL5A7yzYRMDQ0MgSaSmpFA8vZD4uGlX/LXcbhczi6dTkJfL7PIyykpLOVVZxbHjp6iqOoPLE0EoFObgoaMYhkF7Rwd79+2jvHQms8tnkZSYMC6lZd/Pb8uysMZxyT0YDFFX38iRoyeorqml6sxZqmtqsNvsqKqCaZoMDPSzeNECphcWMGd2GbNKZpKYEH/VrpPlZGUwY3oh9Y1NjI6M0tDUwu49+1mxbIm4wiZMWiLQhUnHsiyOnzxNY1ML4bCOrhvcsGAes0pmol7Flpg2m4383BxysrJYcsMC9h84zP73DtLe0cnRYyexO11odpVTlZVUVFRQcfQ45cdOkp+fw6ySGeTn5eB0XPvT8dY4TdBHRnxUHD/Bmdo6qmvOcuzEKTo7u1E1FafThR4OEwiEWbliGR6Pk1tX30x52SyivJFXvZiP3W5j6eIbqKyu4dixk4yEw9Q3NtPY3Ep+btZVfW1BuFpEoAuTjq4bvPzam4QNAwsLj9vF7PISsjLTrsnrK4pMSkoS99+7llU3r+DgoSPExngJhMKcrDyF4Q9js2s0trRSW9dAdFQUC+bPYXZZCTlZmZTNKvlA4ZOrxbK45rPzvoFBDh2uoLX9HFu376K6ppZwKIyiqqiaimVZxERHkZeThTcygi98/nHy87Kx2bRresVu5ozp5OdmU1VVg2VBV3cPm7ZsJzf7TyZ/dUDhuiQCXZhUDMOktb2TbTt3YbPZ0cMhFixeRGF+LjZNu6ZjkSSI8kZyy6qVrFyxlMbmZp5+5hmam1vp7h2kt28QkPAHA7y7fSfvrN9IcVEhj37mAbIy0ygqLCDK67364XGVA90C9HCYngt9nKmtpbG5jZ8/9Qznz/dgdzrRVA1JlrHbbSTGxxEfN43pRQU8dP89ZGakjdvtgMgID3PKZnH69BnO1jfSc6GXXbv38vCD9xI3LXp8BiUIn4IIdGFSCQSDvLV+E6qiEgqFwIIbly8mNztzXMelaRoFeXn8+3e/S1d3N6+8/ha79r5Hb18//f0DGJJEZGQkza1t/NO3/5XY2Gj+9KtfYsb0QjLS04iO8n6s+9Qfx9WKc8uyCAZD9Fzopb6xicMVx/nvXzyNblq4XE7cbjemZWG3qcRNi6GoII81q29m2eIb8Hojxr3gjQTMnTObI0dPcPJUFaqmMeLzs++9Q9x1x+oJcqBREC6fCHRh0jBNi77+AZ597nk0TUNRVdKSk8hIT5lQ140SExL4869/mc8//hgHDh3h+RdfpvJ0NYZpYhgWNoeDQCDIt//l+8iY/NnXv8byZUtISU4kMjICm6Zd8TCxrmCsm5ZFIBCgr2+AuvpG1m3YwouvvIbL5cLp8WCZFqZhEBHhRpYlblgwn/vuWUtZ6YxxOUPwURLip5GdlUlUdBQ+f4De/n5eef0NVt+8fFJVAxQEEIEuTCJ+v5/DR0/S1zdAVEwU/pFh/uLrXyIvN2e8h/ahIjwuVq1cxvKlizhxspKnn32O7Tv34HR7CAaDuCMiCQQC/PSpZ/nxz5/m9ltX88C9aykqyCPC40FV/3gp08tlWZ++BKxlWYTDYQaGhtn33mF+/eIrHDpcgdvtISExFcsy0fUQlmkSCgW4966HuO+eu8hIS52wJ8clYNGCeVTVnOXVN94iFArT1naOyqozzJ8za7yHJwgfiwh0YdLo6u7he//2n8TGxiEp0N/fT2F+LtFRE7tkp01TmTt7FrNKZ9B+rotX33ibH/7kZ9jtdlxuD6ZpYpgWG7fsYOO7O8nPzeHxRx9k9cpleCOvzOE5y/r0c/TO7h5e/c3bvPbm27S1ncPpcBIdG4+hm4SCYXw+H4Ggjx/94HusXLGYKG8kiiJP+KXrrMx0crMzCYd03J4IhkZH+b8/+gkv/+rJCT92QfhdoqSVMCn4A0GaW9sZGOwHTHyjw/z93/4VWZkZE7bk6u+SJAmbppGRmsKffvkJDuzcwg++/x38vhFGRoZRVRVFVVEUhaaWVr79nX/jltvu5tvf+S4tLa2f6KS6ZFkololkmVimifQJIt2yLE6fruHzX/lT1j7wGZ7+1a8ZGBjA7XYhyTLBQIBgwEdKShyvvvAkJw/vZO3tq4iNibqiKwxXk6oqzC4rZc2amzCMMKFQiKrqM3T1XBjX+/uC8HGJGbowKTS3tPJfv3gKu8OOJMNAfz83Ll9KTPTkOo2sKDIetxuX08W0adFML3yZjnPdPPfCyxyuOIYe1lFVDVmWGRwe5e0N77Jt116yMjP5xte/SlnpjMtq4arIMopk4RsewONwIYUNbJoN6TIW3i1r7PDh4SPH+da3vosBDI4OETZCABi6gR4KMy02lhXLl3DnrWtITkogJTkJm+3a3jS4Ugrzc7hhfjkbNm4k0huFicS3vvM9fvjv38Up9tKFSUIEujDhhcJhznV1UXm6CqfLzfDwIPesvYP01JRxqcB2JciyhMftpqggn8yMDNJTk2lrP8f+A4d4d+sOOru7cTicBEIG/YPn6e0b4u+/+W2ioyL5+te+zLw5ZTjttj84A9Y0jaKiQr7ypS9y/Fglt966hqiojy7YYpomPb19bN+5m2efewlDh57eYUJGGJtdRg/rGKbO9MJCVt24nPKyUtJTU0hMSJi0Qf4+t9vFzOlFLF50w9i9+XCYPfsO0j84hN1uQ5bFYqYw8UmWWFMSJriz9Q38/KlnWbfxXVRNY3BwgBef+QUL5s3GYbeP9/CumHA4zLnOburqGzhxqoodu/dSVV2Lqqo4HA4Mw8CyTIqKCoj0OFmz6iaWLV1MfNy0D62QFwyG6OzspKuzm+ycbOLiYj/0DUAwFKK+oZFtO3dx5Mgxenr7qTlTh8cTgarYGPWNYhghli1ZyOJFCyguKiQ7M4NpsTFX7ardeLjQ188bb63n2//6b8ROm4bf5+Ov//LPeOSBu4nwXJtCQILwaUyd70ZhSjIMg6bmVvbsfQ+H04llmcwuL2dGcRF225Vr2DERaJpGRnoqqSnJFE8vpGRmMaerz3Ds+Cn2HziIpmnY7Daqa86g6yEu9PWz78BBigryWXzDQvLzcn/vqpXdbiMzM4PMzIwPfb2hoRFOnjrNwSMVVNfUcra+nq6ubuwOBy63E79/FEnycestqygqzGNOWSkF+XlERkYgT4K98Y8r2htJyYzpZGSkMzg4hM1m4+VXX2fNzSvwuN2T4jyAcH0TgS5MaOd7LnC6qpr+/n5cnggkZD732MNETphOZleeosgkJSaQmJDA/LnlzC2fRXFRPi3t7ezcvZdAwI/b7aKltY36+gYqjh6nsuoMhQV5zCqZwaySmURHef/g1+/sOs/Bw0eprW2gqrqWmtpaBgeHUDUVm81JwO/HGxXB2tvXkBA3jZU3LicvJxunwzEpDiB+UoqikJWRzt1rb+fnTz6Dx+2msamJk6eqiI2JweP+5G15BeFaEIEuTFiWZVFz5gy7du9BUVVM08Rmt5OXk40kTf09TUkCb2QESxbNZ+7sWdTWN5CcGM/5ngscP3GSnt4+JFmmt3+AXXv3cfBIBYUF+cyeVUpRQT5z55QTPy0WWZbQDYPG5hYOHzlKQ1MrBw5U0NraiWGYKLKCotiQJYnUlASKivLJSE/mMw/cT3xc7HWzf2xZ4HA6yMnKxmazI8syToeD117/DcVFBbizMqbsm0hhahCBLkxYhmHQ3NzCqZOniIiKASRkWeY372zgeFoKs8tKycpIw+VyTvkftA6HndIZ05k5vZDevn5efOU1amrraOvooK2tg2AwRCgU5sTJ0xyuOE5GWhq337qarIxU0lJTqGuoo7L6DOs3bME3GsSmObFMCdMwiYmKIj09haSkOMpmFXPHbauJiZ7Yd/uvJNM0GRgcoq6hiZOVVZyursXpcKCHwzjsDvbs2UdfX/+kuSIpXL/EoThhwtJ1g3fWrec/fvBDhkf9hE0LWVEIBsP0D/Tz0P33sHTRAmYUFZKWlkyEJ+KyrnRNFaM+Pzt372XL1u00NDVzvqeXUV8ApLEmNqFQGEkymT+vnB27duDxROJwuLB0ME2IjY4lLiaG0pJibl1zE7NKi3E4pta5hI+i6zoXevtobGrhdE0t23fuYefuPXgjvZca/2CZZKSl8J8/+D7TC/On/BtHYXITgS5MaJ2dXbyzfiOvvPYm/pDO8OgooaCO0+VkZGQY3+gINy5dwppbbmbmjCKSk5KIivKiTaHT139MIBji1OlqXn3jLQ4drmDUHyCsG5imhWHoWOhjb3QsCUVWiHBH4HY6WbP6Ju647RayMtMmbGnWqyEQCNLb109HRyd73zvAW+s20NDYTGSkF4uxOvROp5OEuDjMcIi/+9u/ZNHC+bjFHrowwYlAFyY807To7e3j3W27+OlTT+H3h9ANnWAgiN2mYYR1hoYHSUtP4661d3DLzTeRmpyIx+2e9PejPw7TtGhsaeWtdZt4e91GunsuoKpj/cdtNht+3yh5Odn8yeceZdnihcRER103M07LsgiFwvQPDFJX38ibb69n+86dDA+P4HK5kCQZyxqrGqepKlmZ6fztX/0FJTOLsNlsYqldmBREoAuTSjAc5sSpar7zL9+nrqERSZLQVGksmGSVUX8Au93GimVLeeTBeykpLsLhsH/oPe2pKhTWWb9pK3/3zW+jajYkSR472GYYvP7SL8nLzUK5bg66WYR1HZ/PT8WJ03z/335AU3MLmqZcOuw31kwmhNPp5MYVy/izr3+ZnKyMKXk1T5jaRKALk45pmui6zrnO83znX7/Pzp27QJJwRkRiyQq6ebF2uWUS5Y3gn/7+b1i1cgU2mzbuPbivhZa2Dn790us8+9xL2O0OTEtCURQG+nv54Q++y6qVS4nwuMd7mFedaVp0ne/h+Vdf56mnf0VYN/BGeAmGAqiyhKGHGRkeIm5aHA/cfy+PPvIg8dNiUVX1ulm5EKYWEejCpGUYJkNDQ/T197Nl6w5eeeM3NLW243K5URRlrMOYZaIqCiPDQzz+6MM8/uhnSEtJnrJ7xqZp8eIrr/Pt7/4HmuZAVlQsS8E0TUwzhMOm8OyTP2FWSfGUDa1gKMSJymqeee4Fduzag8vlJhQOgTU2Yw8GgxjhIMsWL+Seu9cyq6SE2Nho3C7XdXNFT5iarp+TQ8KUoygy0dFReL2RfOaBe7lxxVIqq86wftMW9u4/AEg4XS4CwTA2h4tNW3eyccs2brpxGffdvZbpBXk4HFOndCxA+7lO6hqbME0TRZHRDQNZHnvzYrc5GBkepPZsA9lZGXgjI8Z5tFeOZVkMDA2zZ/9B3npnA1XVZwiFwyiyRjgcRkIiHBq7AfDoQ/ezfOkisjPTmTYtFpfTKYJcmBLEDF2YMizLYnhklI5zndSerWf3/gOs27AZh9NFMKSj2W2EQiEiPE6mRUczvSCPVStXsHD+nClx79q0LJ574WV+9NMnGfUH0DQbId1EYqwtK6ZB0D9CXm4m//LP/8ic8tLxHvKnphsmHec62bZ9F3v2H6KhuYW+/gHC4TCapsHFtrGhUJAvfeFxyktLyM/LIS5uGnbbH25uIwiTkZihC1OGJElERniIyM8jIy0VWZF56ZXXsTncyKpG2LBA0RgYDjA0fI4Lvf3U1Tfy9vqNzC2fxaqbbiQ1JXnS3mU/33OBs/UN9Pb34fZEYjB2b9+ywLRMZFnC5nTQ0NhCfX0Thfm5eCbpXnpY16k8XcPGzVs5W9dIS1sH53v60A0LTVOx2zRkCSzJIBwKEA75uefO28lIv76u6AnXFxHowpQjSeB0OpgWE00oFMayLGRJIT8vB1mWOVVZSdjQ8QdlGppbaGxq5uzZeo4dP0ludiYrb1zG9KKiSXfl7d2t29n33kHsNgeyJGNYFmMLcBJIFhYWiqJiyDqvvPEW6WnJ3LBw3ngP+7JZlsXQ8AjvHTzMwcMVNDY1U1ffRF/fAJKsIMsa4XCIyMgI8nOzGR4eouPcOYywhGkYJCbEizAXpjQR6MKUJEkSiiyjqQqSNXY1qXzmdMpKZ1DfUEZlVRXV1TUMDgRRZIWu7vO0d3RwuCKCuoYmsjIzKSjIZfnSJURGeib8FaYLvX1UHDtJa9s5vJFRKMrYvepQ2ABZRlJkZEnCCIdQVZVjJ05SfeYss0pn4nI5x3v4H0nXDTo6uzhw8DC1dfWcOHWamtqz6OEwTocDVQbT1MnMTCc/P4+iwnwiIyLYsWsv7R3tKKqKx+URd8mFKU8EujBlqaqKNyICmbG9ViMUZsn82dy2ajmnTlexb/8B6uoaaWhsoaW1FUVR8AWCbNu9n/DWXRRPL6CuoZmsjDTmzSknKTEBTZuY3zL7Dx6hqaUdl9ONpmnET4slIT6e4ydPI6kqYd1gydIbOHjwEEG/H4fdzpGjxyibNZPZZRNzLz0QCFLf2MzJU6epqa1n/4FDNDU3o6gqTqcDMxxGsgxmFheQkZ5GWVkZCxbMIy01mWPHT/Hm2wPo4RCyJJGUlHRdNPQRrm8T86eTIFwBdrudpIQEevuHwIKqqmoCwSCxajSzZ5VSVjKTjs4u9u49wHsHD9Pa0U5TSyshPYRmt9Pc2s6PfvokqcmJrFl9EzOLiygqyCMtLQWXc+I0hBkaHmHHrj3UNTYiSwoRER4WL1pAemoqBw9X4FBc+P0+PnPfXeihIBUVR7FMnb373qO8dCYzi6dPmO2F9w82NjQ0UVvXwHuHKti9dz8Dg0O43W5sdgeGaeB0Opien01GagqrV93E7PIyoqK8l/6fDAwO0tjUhGGYyJpCdk4Wsjwx/n8JwtUiAl2YshwOB+npaVzoO40sK5ytqycUCl76fVmWSUtJ5uGH7uWO21Zz5NgJ3nj7HVpaz9HXP0BX93ncHjfDPh9P/+rXeFwubl65gqWLF5KXk016WiqRkRHjHuwVx0/S1NI6dtfcMsnJyuDO29fQ0tzK0OAgSGNXtlKS4nn0ofuor6+n0zeK3x/gbF09rW1t5OZkj+szGKZJf38/jU2tNDQ1s3HTVg4ePoJumDidLhwOO6ZlkpSUQGy0l9ycTB596EEK8nKw2z/YUMbn83G+p4fISC+yqpCbk4MkrqYJU5wIdGHKstltxCfEoxsGdpudzs5OdN340M+NiPBw47LFLFowj4bmVt7ZsJnN727HHwxwoecCLpcbC4uNm99l/cZNlJbM4L6711JWWkJc3DSivN5xOR0fCoV56531tJ/rQlFUFFkmJyuT7Mx0mptbsDCxLBPT1LGwmF02k5SkBDo7O7E7HByuOEZxcRGZGRnjcmBM1w36+vtp7+jgyLETPPf8y3Sc68Rus6MoKsgmmqYQ640mMiKCu++8jbW3ryE2JuojzzWEw2F8Ph+R3ihkSSY5OWnCn4MQhE9LBLowZdltY4Ee1sPYbRAIBDBN86P/jN3G9IJcivK/zle/+ARvrdvAj3/6cwzTJBAIYkmg2mycOl3F0WPHSU1N5b577mLN6puJi43BGxkxduf7Gjnb0ERLWwfDwyOEw2EWL1zAjSuWIgGWYaIpCpqqEA4GUSQJu03lzjvW0NHZSWtrK+0dHVRWnqazu5u0lORrMmbLsgiFwwwODtHV3cMbb7/Dr557HrvDiaKquNyuizX6VULhEMlJ8XzlS19g5fIleC7jAJ9lcbHTnIFlWZiWidvjgeui8K9wPRNrUMKUpWkasdHRF0vAWpiWweXWUZIkCW+Em8cffoB9OzbzH9/7F5ITEy69KbDZHUR4o+jtH+BHP/0Fq++4l2/8zT/S0NyOz//H3zhcCaZp8fOnfklr+zk0TUOSoDA/h7LSGYCFaRoYho5hhJFkCSQJCbjl5pUkJyWiKAout4cTp2vYsnX7Zf/dfFKWZaEbBoNDw+w7cIQnvvQNlt98O6+89hs8EV4sxnqUG4bBhfM9lBQX8fwvf8G6119i7a2rLivM338dCy79nchIF7dGrurjCcK4EzN0YcpSVRVvZCQwtkdrs9kuhfvH2fd22GysWLyQBXNe5GxdA8889wJbtm7HtCwUVUPTbKiajWMnKll561oS42L5l2/9bxYtXIjHc/V6aLe2n+N09RmGRkZQFZX58+aycMFcbJqKX9eRFQlVlbEsC7umYZkmFuB2OVixdDEdHedo6zhHc2sbx06c4u61g8RexYp5PRf6ePXNd/jJz57E5/MROy2WuIR4kKSxjmeBIA6HnS888VnuuuM2UpMTsdlsH7ssq2GaWBYX255KSIpMdNT10ypWuH6JQBemLEmS0DTtUohrmoZumB870AEURcHjdjGzuJBvf/Pv+coXP8++9w7y6htv0dDUjGlayLKMx+UhEAzzf/75e8iSxWceup977rqTlJSkKx4oTz/3AiOjfjRNo/dCLyXFRcybXX7x4WFslh5GkayxWTrWpd+6bc0qtu3cSX1jExEREdQ1NPPOhi088eiDV3SMhmlSV9/Ir379Itt37SEY0rEscLs9+P1+LMvCPzpC2axSnvjsI8woLiI+Lha3y/WJty4MwyCshzEsC8OyUDXtuuguJwgi0IUpS1UVPBFuLHMswGVZIRwOY1rWJ95r0jSNmJgoIr0RJCfGs/iG+Zypa+DtdRvZtmM3NlXFExGJP6QTCAR44dXf8M6mrSycP497776D6YX52D7lXXbLsujpHWDHrj0MD4+gKArz58ymvHQmHvfFZWlrbC8ZxpaxVVXld/eQp8VGM2/ObFpaO+gfGKS1rZ197x3k3rvuIPIKrCr4/UEOHKrg+Zdeob6xkeGRUUZ9fhRZQZFlAgE/qirzwP33snLZYtJSk0lMSMDl+vSNUt7f7rDbbJimiRHWcbomzjVDQbhaRKALU5YiK7icTnTDRFEUNFXFMHQs04JPeW5NVZSLnd68pKelUpSXw/1338nBw0d5/sWXsTnc6JbEwIif/qERBrbu5GRlNQX5OdyyaiXz55T/Nnw/JsMw+fHPnmRgcBBZlhgaHGTFskXMLi/9bWiNbZkjyTKyqkIohMVv9/UVWeb2NaupPF3N1p27cbs9NDa38Obb6/ncIw98onFZlsWFvn62bNvJxs3v0ts7wPmeC4z6/MgyWKbFyOgQSUkJfP6zD1FWVkJuTjaJCfHYNO2KBa5hGITDOpIkYZgmuqFjt0+trnqC8GFEoAtTlizL2G12wuEwsiyjqhqBQBDTNLhS//RlWSLC46aosIDcnGyKiwqYVTKdhuYO3ly/ma7u89g0lRGfnzN1DbS2t3G2vp7UpETmzi7n1jWriIuNvuwwMy2L/sEhNmzegmGYmIZBUWEeZSUziI2O/sDn6roJ8lgb1f95yjszPY3yWTM5dbqaEZ+fngu9bN2xiwfuuROX03HZfwehUJjWtnY2bt7CicrTdHR209zSDpJ86apYIBhkRmEBq1YuJy8vm5IZM0hMjEe5CnfDQ6EQ/kAAGDvpr+s6DrsNccpdmOpEoAtTlixLaJqKcTHMZEVlZHR07F76FX4tSQKbTSM7K4PMjDQ6u3vIz8vmTH0ju/ce4GxdHTLg95tU19RSW3uWuvoGTpyqJCE+ljtuu5W8nOwPLZLyu3w+H88+/9LFWa+E3zfKLTetpKgg7/cqoVkWWIAlyxgmWMgfeNOgqgrLliyiqqaWzdt2oml2Glta2bR1J/feueYjxzHWKGWYU5Wn2bl7Dx3nuqiqrqH7fA+yoqJpNgLBEGHLYvHCBZTNmsmMogJml5USFeW9qnfCgxcDfWybYSzGx1qlXrWXFIQJQQS6MGVJkoSqKkiShGWBJCsMDA6i6/pVfV1ZlklJSuCeO26ht3+Q6fm5nKo8TWNzC9XVZ+jt7UVT7XSc66SxqRmHw077uS5SkhJZfMNCZs4oJsr7wQp0pmlyoa+fV17/zVixGN0iKyON+XPLiY+b9vvPfvH5ZUUBSUZSVSw+eC0tPzeX2WWlHDl2Al8gxODQMC+9+jq3rV55cVb7+0zT4lxnF4crKjh56jT1DQ0cOXoMSZJRVRXLsjB0ncSEeEpLSkhOSmTxDQuYVTIDj/vqnfj/XYFgEN+oH1VRsZBw2B2iy5pwXRCBLkxhEqqq4vFEgGUhSxK9vX2EQ+FrNoLYaC933baKm1csofpMLfv2H6S29izNrW3UNzSOzSIlme079jAyOsrpmjrKSkuYOaOImdMLSUyIu3Tae2R0lD37D9Hb14+mygQDAe64dTU5WRkfPBEujf1imBaSomC+30b1f7DZNMpKS5hTNosde/ahqBpNzS0cOXaSJQvnXvq8UFinrb2DEydPc6ryNPsPHOTM2TqcTgeyrFx6/by8HArz8igsyGfliuVkpKeiade2TvzI8Ci9fX0gyaiyQpS4siZcJ0SgC1OWJI2dSo+Pi8fvCyJJEj09FwiFQtd8LG6Xk7nlsygrmcG5rm727N3Pth276esf4ExdAzabgwjVxuFjJ9m59yDFRfnctGIJ5aXF5OZkk5KUxLmu87zw8muoqorNphLpcbN82VLi/sfs/BJpbB/dQiKs60hIH7qLPL2wgIXz57D3vQPIioqq2XjpldeZN3sWpmFQV19PQ1M7FScq2bJ1B+d7enA47LgiIpElCafDTnZmOonx01i9aiWLFy4gyuv91KfVP6nBobEKdACqppIQHy92z4Xrggh0YUrTVIWEuGk0NrUB0NnVRXAcAv19qqqSnprCIw/dz1133s6hI8f4+ZPP4AuGaG3vRDfAE+GlqbWDnz35S5ISYrlpxXJuWLiQc51d1J6tw+12MzQ0wH2PPUJ6asqlveIPIysKhmWNzaD/QKo5HHaKpxcxb+4c9r13CAmLw0eOsmf/AfyjPt58+x0OHqnEHzKw2e14IqKwMHDYbSTEx5CXncXjjzxEyYzpn/pK3pXg8/kZHBgEJGyaRkJCPOJAnHA9GP/vPkG4ihRVISYmkrr6EBLQ3d1LMDh+gf4+SZLwuF2sXL6YZUtuoLq2jh//7EnO1jUwMurDN6qj2mz09w/ywsuv8cIrb+BwOnFebNuqyjJ333k7sbExf/hFLMA0kS0Tp8OBaZkfsos+pjA/j1U3Lmf/e4dAkjAsk7/+u28y1D+AzelAVmzYNBlNtnDaFKKiolm6ZCGPPHgfmekpqNewfv0fEwwGGPWNIkkWmiIzLSb6j/8hQZgCRKALU5qqKMTFR2OaIex2J11dPRMi0H+XqsiUTC/gyR//v5zr7OKpp59h87vv0j8YwELBYXehqiq6aSBJEA6FuG3NatJSk//w7Nwam5PKSCiWhT8QRLL+8CzV7XKSl5NJcWEuZ842oCgqNrsNV0QkYGEZIRySRFJ8DJ956AHW3nk7MVexTOynEfD7GR0ZRrIsdD1MfHysOOEuXBdEcxZhSlMUmdgoL5qmIssSoz4/hnH1G6d8UslJifyfb/4DWzet59v/9I9kZaQTCgbRdR1NUTHDOqPDQ3z9q18i8mKd+o8iXQx2iT/+zAX5eTzy0P0MDQ5gmQajoz6C4RABn4/ZpTP575/+kHVvvcYTjz86YcPcsizCYZ1wMIQig01TcF1mUxdBmOzEDF2Y0lRVJT4+/tIpb9M0r3pXsSvB5XJx99rbWb3qJqqqa3nu+ZfYsHkLpmFwy+pVpKcmf/RVLOnSL5fN7XJRXFTE3Dmz2blrD/Hx8fzZV77MbbfcRGLCNJxO5zVtDftJWNZYYZlgMIjD5UTTbJf1xkcQpgIR6MKUJssyHo97rJ65MtbTPKzrn6hBy7X0fmOZSFVjTnkJuTmZ/OU3vkowFCYpMR6n4zIquUlgSfzBffMPe82c7Ex+8p//zvmeC0R5vcTGRON2f/JGKdeaaZnohoFhGJimiWmauF3X5v67IIw3EejClCbLMhEeD+FwGJdTwTRNdN0Ya306gQP9fWMV6GzEx01jWmwMpmV9wgNo8mXN1zVNIzkpkYT4eBTlg9XlJjrLtDAvdtQbe9MGkRER4z0sQbgmRKALU5pysYkKcKk0aljXMU3zqtQRv5pkWf6Eh16ky56lw28r7E1GhmlgmAbApVUYr1csuQvXh8n1E00QPqaxJXfPxXruYz/kDcOYFPvoV4wkjZW/nVyT7U9E13V0Xb9Y7nesOqDbLXqhC9cHEejClCZLEnab7eKeqnVxyf1iC9UpTbr0cR3k+CW6rl9qnQqABM6P0TlOECYzEejClCZJEna7/VJDFkVR8PsDF9uJXgeki43RrxOBQJBgIHBphi5JMrZrXEteEMaLCHRhSpMkCZvNhiRJSPLYNbaRUR+ha9igZeKY+sE+6vMx6vONnTeQZTRNRVHEjznh+iD+pQtTnqIoOJ1OsMYOxg0PjxAOX3+BPvXjfKxf/PuBrqoqLqdr3JrECMK1Jv6lC1OcNHYwzu3m/T3lvv5+gsHgeA/s6rPe/5jq5wV+y+fzMTIyAoyV/Y2I+GBfeUGYqkSgC1Oa9P+zd+fRUdZ5vsffz1Jr9oUEshJCFgIkLAKyikqrtIwb2orabdvj2Go7rfZy7jL33HP/mGPPmXum9XqnvTPTM87YjdK2yr4LqGhQQAiBUCE7IZCE7JWl9nqe+0dYZBsFgcryfZ1TJxRUyLcqJ/nUb3l+XwU0XSUxKRHTNFBVlY6OTrw+X6RLu7HMs2k+uvT3D9DX1zf4vdY04uPjJNDFqCGBLkY8TVVJTU3BNAavS+7t7Y1IT/TIGF2hHgoFCQZDgIJ+5gwCCXQxWkigixFPVdQzp4UNhlt3j3vIdVy7cUbXSN3j8eL1etH1wW5xiYmJo2LvgBAggS5GAVVVSU1JQdV0TNNkYGCAUGj0bYob6UzTxOP14j1z2ZqmacTFyrGvYvSQQBcjnqIoREdHET5zLXo4bGCM9INllK/fFFAMRvpI3TBMPB4vHo8HTBMNBadDWqeK0UMCXYx4iqIQHxeHqRhoukrvQC8+v+9MS9XRQRkFT9XExOvx4xnwAwp2q52E2LhIlyXETSOBLkY8VVVJSxuL3WEnbIZxu3tHzcEyCqPrhzwYDBEIhMAcPFBIGrOI0WQ0/ayLUUpVFcaOTSUQDKBqGoZpUlldS0tr28ifeh8lAsEQNbXHOdncCqpC2AyjaQrxZzrtCTEaSPtUMeINTrnHEgoGMc504Ppo56fU1tUzc1oJC+bNISc7a9i2DB3NfP4AZYeOsGfvfmprG6iqrkXTNMLhEGHTICY2OtIlCnHTSKCLEU9RVZIS44mPi6X1dDt2u53a2noqKlyUlx+l/LCLkqmTmTm9mPz8XOw2a6RLvr5G2HXYpgn9Ax4OV7g4WHaY/QfKKCs/gsfjwWqxYgKarpGQGE9stAS6GD0k0MWIpyoKSQnx/GD5/bgqq6mubaC19TQOh5P2jm7WrNvM7s++ZN7c2cyeVUJh3gQmTSogOipKDiUZQsLhMD3uXo5UHKOyqpbSL/az76sDhI0wukVHUVU0i0ZmRhaF+bksmDtLWqeKUUUCXYwKqqry0s9+yslTLfz5w3VUVFRy/MRJTrcNjti9/gBbtu1kx66PuWX6FO6+awl5uTnk5U0kPi52WHbsUi76OFwFgkHa2zuoqanDVVXLlm0fU3G0Ck3X0HUVVVNxOGyMSU5kYm4Oty2cz+JF80lJThr2z12IqyGBLkYNRVHIzEjjFz9/np6eXjZu2cbmbTtoOtlCX7+HQCCApln56qCLz0r3k583kRWPLqdoUh7jszNJTIjHah2GvbWH4SyDaYLX56OtrZ36443sP1DGhg1baGw6RUxsHE6ng2AogNNhJz4+lslFBdy3bClzZs0gNjoq0uULERGKaY6ii3GFuIjH6+WjXbtZuep96uuPAzp9fV50VUPTdfr73Tiddp5c8TCLb5t3JtjjsFptQzonvT4fO3Z9yvMv/ZKEhCR63d3s3rGFjPRxaEO4nahpDh4O09HZxbHqGtas38S2j3ZiohATFUMwFALDxO6woypw65xZPPOTHzJlUsHwfLMlxHUkgS4E4A8EcB2r5u2V77Nt+240VScUDqNpKqFQECMcwN3bzffvXsLTP3qc4uLJREdFoev6kAz2s4H+wsu/IiEhCXdP15AOdNM0CQQC9Lj7+GR3Kf/vX/6VCtcxYuPicDicoCgE/QHsDiuKCc8+8zTLH1jGmOTEIfl8hIgEmXIXArBZrUwvnkLxb4r4L7/s5oPVm/mH1/+RYDBIXHwMzqgoHE4re/buY8PmzcyZM4tfv/ISt86+BYd9hO2KjwB3Xz/vr17LP/z2DQY8XmJi40jPyAAU+vr7CYVCFBbk8dfPP8v3bl+IzWqRDYtCXERG6EJcxDAM/P4APb197PnyK37z9/+b9vYOHE4nqqZy9kfGNEzSxo7l0Uce4uGH7icpYegcM/r1EXpiYhI93UNvhB4OhznV2sYf3lnFh2vWYQKBQBBN0wgGQ3g8HiwWnflz5/LM0z9icmE+MdFOLFarbHYT4jJkhC7ERVRVxeGwY7fbuGfJbZRMLaSu/jh/eGcVBw+VEw4b6BYrqAqtbR289fYq3n1vDQvmz+XZn/yIjLSUobErXjn7YWjFn9fr44iripWr/sS+rw4w4PESCASwWAbXwN3ubmJjYnj04QdYtvQecieMJzkpCZvVOiSXN4QYKiTQhbgCRVGIinKSmzOetHFjyRmfxYmmk6xZv4mPdnxCMBjCarXjGfDQ2+dh2/aP2X/gMJML8/jB8r+geOokopyR7valDIbgEJiI6+zuofSLfWzasp3augbcfb309vZisVix6ha6urpIHTOGJ5/5CQvm3UpOdjZjxiRjG+IbEIUYKiTQhfgGijLYhjN/Yi7ZWZlkpKVx95I7KCuvYMvWHbS0niYqOgaP14u7sZGuri7q6+tITkxg2b13sWjBPJKSEm5+4ecyXIlY41TDMGhuPc3a9ZvYXfolvb39tJ5uw+PxousapgndXZ3MnD6N5555mvy8XCYV5pOamoJFl19PQlwN+YkR4irYrFYKC/LIzc2heOpkphVPprqmjj379lNefhRVU+kfCFNT10vlsSBtHR1s/Wgnc2bNYMkdi0lPTxsya9g3UigUorq2jo1btnGsupaa2nqam0+j6xYURSUUCmHRdW5bOJ8ZJVMozM+jpHgK8fFxo+L1EeJGkEAX4hpYdJ3xWZlkZaTT1d1DcXERhytcHKuqpnTPFwQNFYvFSk19A0dcLqprazly1EVRYQGLFswjd0IO+g0dgSqYZ9bOzTP3bwZ/IMiRiqN8+lkp9ccb2fPlPrq6e7A7HFitVkLBEPHx0dwycx7FUyZzy4wSpkyehN1mlV3rQnxHEuhCfAeqqpKclMhdd9zOogXzqTjqIm/CeGobTlB+xIXb3YvVbqeltZ2mk9vZs/crjlXVMXnyJGZOK6GgYOINbQZjmmCioqByo0LdMAx63H0cKj9ChauKispK9ny5F5/fj6pqWG12jLBBWloqU4sKKSjIY+H8eUwqzMciHe6EuG4k0IW4DhRFwWGzMWvGdGaUFFNVW8e6jVuorT9OTV09p9va0Sw23L0e1m3ezvadu7lt4XxmzihhUsHgunFMdBTqdZ1u/vrYXOF673cPBkOcbmvnaGUVx6rqKN2zj70HDqJbdOx2G4qioSoq48dnMj47k1nTS7jz9kVkZqSjaRLkQlxvEuhCXGeaplFUkE9hXh5Nzc1s2rqdfV+VcbzxJM0trei6TiAYZNuOXazftJW5s2ey9O47mTghm/z8iSQmJqB/18AzTUwTNFUd3BKnmNdta5zP56eltZWaugbKDlWw9aNdNDScICoqBqfDSSgcIBgIUJA3kTHJiSy9605uX7SApMQEVFWm1YW4USTQhbhBVFUhOyOdF555mkcfeoANW7azZt0Getx99HT34vf7cTrtHDp8mC/37SN9bCpPPPEDSoqnkJWZQWrKGGzWa5+OVzBQCAHhM7drD/SzZ6yfbG6hoaGRj3d/zvYdH9Pd3UNUdDRR0Q4CAQ+J8QkkjUlDV1Veeel5bp01A4ddWpgKcTNIoAtxEyQlJvDjJx7lkQfv4+Chw6x8988crazC6/fR3zdAXHw8Xb29/Pb/vInP52P5g/fx6CMPkZuTTUJCPFbLVR6qogAYhIN+MMNgGlxLoJumidfno729kyNHK3nzn/+Vg2WHiImJxWq1YbXZABNVUUgdk8gt06fz8xefIyszHV3Wx4W4qSTQhbiJopwOFs6bw9zZMzlxspl/f/sdPly/EU3X0AwdRVGxO6LYvnM376/ZyNxbZ/HLl1+kqGAi0U7HudPUvokCqIrC4JK8gcnVBbppmgSDQfr6Bij9Yh+/+fvXaDx5CofTQUJSMoqioKgKVlUnPjaGFY8+zBOPPUJ8XOy1vCxCiOtAznIXIkJM08QwDHr7PazbtJXX33iTrh43TkcUJmCYJpquEwoGGJOUwK9efpF771mC/Vu0CfX5fOz6+GNefOll4hKT6eju4vMd28lIT//G67wNw6Snp4/Vazfy2mtvEAob+ENh4hMTMU2Dvr5eQqEg00qm8Oxf/pjFC+fhdNiv84Y+IcTVkkAXIsJM08Tn99Pj7mXfgcP833/8F2pq67A7naCoqJqCrqmoCmgqPPfM0zx0/zISE+KuGKJen4+Pdu7iZz9/mYTkFLq6uijduZ2MjCsfbBMIBKk/foIP12xg9ep1hEIGwWBwcDSu6Xi8XrxeD0vvXsJTP3yMosJ8YmOisUrnMyGGBJlyFyLCFEXBYbdjt9lYsng+UyblcayqjpWrPmDXp58RExODYrEQIoxhhPmPP67inZWruPvuO3nogfuYkDMe62VH7QooOoahAvq5g2YuNuDxsnf/Ad7/YC1HK4/h8wfo93oBiHI46e7qwjDhqR8+zvfuXExOTibJyYlnmqVIkAsxVEigCzFEKIpClNPBhPHZjE1NIXdCNk889hCf79nHmnUb8Pt9xMTE0NvjJhQMsG79ZkpL95KWPo6Hlz/A/FtnEx0dNfifmWCgEkYnjE7IuPSitY7OLjZu3srOT3bT2tZOT08vAwMeQuEwqqrQ19eL1aLz1y/+lJLiKRTkTyRlTPIV3jwIISJNAl2IIUZRBjfPFebnkpOdyaSCPObNmUlVdS2btmyl8fgJoqKcDAx46Hb30XiqmZa2dt77YC0L58/l+/d8j5joaBRVR7c6MEwVTbcBKqYJjSea+eO7f6K6ppaTzc00t7QSMgx0TR8MfcVk6tQp3HvPEsamjKFk6hTGJCfd4KNqhRDflayhCzEMhEJh2to7OFh2iMbGJvZ8sZcDB8oIo2CxWgc30Rkm6elpTC6aRGZmBh6vnz+8+z52RxQBf5C//Z+/pqrqGM2nmjlUfpiu7g50iw6Kij8QICYmmtmzZjLnlhkU5k1kWvFUopwOmVYXYpiQQBdiGDFNkwGPl/37D3Kw7BCuqhrKDh2hr38Ai9VGKBwmFA6TkJBIXFw8TadasFhshMMGJZMLcB09itc7gN1uJRj0Ew6HyB6fxbSSqRTk5zGjpJgpRZNw2G2RfqpCiKskgS7EMOXz+TlS4WJ36RfU1NZTfsRF6+k2bHYHqqpiGKBog9e2hw0DxQijaRAOBvD7PEycmENhQT4zp5ewYN5csrMzpQe5EMOYBLoQw1woHOZ4YxPrN27hUHkFrafbqW9oQFFVbA4nJgrhcJiA34uuQmFBHolxsSy583buWLyIsakpcg25ECOABLoQI4RhmLSebmPT5m1s3LyFAa+XlrY2AsEwdpuNCeOzsFl0nnz8URbMm0tCfJysjwsxgkigCzECud29fFZayn/8YSXuAQ/js7J47q9+wpSiSd+p4YsQYuiSQBdiBDMMA5/Ph9PpjHQpQogbTAJdCCGEGAFkJ4wQQggxAkigCyGEECOABLoQQggxAkigCyGEECOABLoQQggxAkigCyGEECOABLoQQggxAkgnBiEirKuri9bWVlpaWmhra6O9vZ2uri66ujpxu3vxej0Eg0HC4fBlb4ZhnPt49hYOG5jm+fuKoqCq6iU3TdMu+PPZm6pq6Pr5+zabjdjYWOLj40lKSiYpKYmUlBRSU1NJS0sjPT090i+jEKOeBLoQ11FzczMul4uqqiqOH2+gubmZ7u4eBgb68Xg8+P1+/H4/oVCIUCjESDrX6eybBl3XsVgs2O12nE4nTqeT2NhYxoxJISsri7y8PAoLC5kyZUqkSxZiRJGT4oT4llwuF5WVldTV1XL8eCMtLc10dHTgdrsZGBgYcQF9M2iaht1uJyYmhsTERMaOHUdGRgYTJkygsLCQefPmRbpEIYYNCXQhgJ6eHvbu3cvRoxXU1tbR3HyK1tZW3G43Pp+PcDgc6RJHLUVRsFqtREdHk5SURHp6BuPHj6ewsJCSkhKKiooiXaIQQ4IEuhgVmpqaKCs7iMtVSX19HU1NJ+noaKe3txefzycj62HOYrGcC/xx48aRnT0Y+FOnTmX69OmRLk+Im0ICXYwo+/fvZ+fOnZSXH6K6uhq3200wGJTAHuV0XScqKoqsrCyKioqYP38+DzzwYKTLEuK6kkAXw9aaNWsoLf2ciooKmpqa6O/vl+AWV8Vms5Gamkp+fgGzZ8/i3nuXkZmZGemyhLgmEuhiyGtsbGTjxo3s27ePmppq2traCAQCkS7rqj23wkZ8rHLufk2jwYdbA2SlqaxYZkU5/0+s2xGksu7CdfunHrQyLmXw6Ah/wOS1f/cD8JeP2BiTeP6Tm1oM3ln/n78+k3I17l9iOXffNOFPmwI0njLO/V3RRI377rzwMe9uCNDUYnCxxDiF5fdYyc1SSU1ScfebnGo12LAryLH64bX/QFVVEhISyM7OZtq06dx22yJuv/2OSJclxDeSy9bEkNLa2sp7773HF1/sobKyErfbjWFcGiDD0a+fsWM5n4+UHwvz4dYAs4p1fvak7YLHdvWYlwT6z560MXbM+bOg/mlVAK/P5OUf24iLOR/o9U3fHOiLb9V54YkLv2btCYPGU+c/77Y5l39MU8v5x+ga/I+f2XniPhs266Vf58Uf2ig9EOKVV72c7hge30fDMOjs7KSzs5ODBw/y1lv/BkBUVBTZ2dnMmDGTpUuXsnDhwghXKsSFJNBFRK1du4aPPtrB4cPlNDc3EwwGI12S+JYsFnj3t1HMKbnyrxFFgQW36Gz6fTQrXumn5vjwCPXLGRgYwOVy4XK5WLnyjyiKQmJiIoWFhSxcuIjly5eTmpoa6TLFKCaBLm6a8vJyNmxYz969e6mrq6O/vz/SJYnv4G+et18S5nUnDEoPhBifobJo1vl/S0lSeP1vnNz/XD+h4TUDf0WmadLZ2UlpaSmlpaX83d/9BqvVSnp6OiUlJdx1190sW7Ys0mWKUUQCXdwwb7/9Nrt27cLlOkp7e/uImToXkJai8tRDF07HVzWE+f4z/ZydZPnbVxz86MHz8/BTCzQevsfKnzYNv/0P31YgEKChoYGGhgbWrl3LCy88T2xsLLm5uSxcuJBHHvkB2dnZkS5TjFAS6OK62bJlCx9++AEHDhygs7Mz0uWIq6R8w/2vW36PBe2i1k5/3hzk6ysmb33gvyDQAR74nmVEB/rl9Pb2UlZWRllZGW+88QYOh4PCwkKWLl3K448/QWxsbKRLFCOEBLq4ZuXl5axc+UdKS0tpbm6WEfgw99+ft/PsY+cDeGzylZsxzpxy6a+OiuoL59Lrmwz6PSbRzvNvDaYXadeh0uHN6/WeC/hXX32V+Ph4pk2bxv33P8Dy5csjXZ4YxiTQxbfW3Nx8Zhp9J/X19bKBbYRJTlBITvh2gZuadOn4vb3r0jd0Pb0XBrrDrhAXo+Duk6tlz+rp6eGTTz7hk08+4Re/eIXU1FTmzJnDihWPy1n24qpIoIv/1O9//3u2bNmMy+XC4/FEuhwxRDjslwZ6KHTp4y63AU4C/cpM06S1tZV169axbt06NE0jOzubxYtv56mnniInJyfSJYohTAJdXKC2tpbf/e537N79Ke3t7ZEuZ1QwjWsLt+t9JFR7l0lnz/lRdmqySkLs5VfSu3pMJlx0oNrlQt5+0bXppgkt7bI0822Fw2Hq6+upr6/nrbf+DafTyfTp01mxYgX33Xd/pMsTQ4wEumD9+nWsWrWKsrIyGYXfIIoC6hVms/sv85JHR10ajrFfOzwmbAyeFnc9vfpPPj7cen7D2vNP2PhvP7Vf9rFNrQa3TL3wCWWOUy84DEfXITnhwnX4tk4DWam5dh6P59xlci+99BITJkxg2bJlvPLKLyJdmhgCrrzrRYxor7/+GkuW3ElOznhefPFFSktLJcxvoNnF+iW7ws+OsI+funTEOjX/wrAsKdRwfm0E3O02r/sI/Wps++zSVJ4/88LxwcJbdPSLhgw791xmXl5ck3A4TE1NDa+99hpZWZnMnDmDl19+iaqqqkiXJiJERuijRG1tLW+++Sa7d39KW1tbpMsZFSblarz6KwcDHpMZl9nd3TcwmMjVDWE6u02SEs4H9u236rzytJ1tnwXJHKfyXy8aKZdXXvl0lsQ4hecvOrL1rObTBut2fPch8vbPgzS3GaSlnH+X8vhfWKmoDrN7f4icDJX/9XPHBZ8TNuDdjaPrkrWbqb29ndWrV7N69WocDgfFxcU89tgK2Tk/ivx/AAAA///t3Xtc09X/B/DXBmPA2LgoIiAiWMpFUVBueUFgamomYFl5z7TSJNO0NLPs5tfuGb+yq4madwVvkMolvIO3NG5aIl6GIHIbG7ANxu+PxWByEXTbh4338/Hw8fUL2+e8xyN8fc75nAsFuhETiURYuvRN/PXXX5BKpUyX0+V4uLMxxLv1WeNZ/zSG8o4Euca+6Ww2sPhFLha/2HIwb9kva/W6NgJWq0PlN0TaCfTaWmDp2mps/oKnHnngmgFfrrBo9T0/bZPhcq6RbBPXyVVXVyM9PR3p6elYsmQxXF1d8fLLL2P69BlMl0Z0iIbcjZipqSlOnjxJYc4QO5vWf70k0npsjm/srX79Ww0uZLUv7H7ZKesUQ9cnztVi8cdVkFY/eOx/4145Pv+lRg9VkfvV19cjPz8fyckpTJdCdIx66EbMwcEB9vb2NFudIXeKVRPAmp6wplQCF7Lq8NF31RrHkMrkwHOLJJg/lYuosWZwdWJrHKcqVwDnM2uxYbe82fNrsaRe47S1tjQM89+/bKxOCZSUaT7LLy6ph1KpGi1oqF183/vikxS4fKUO857jYsIojsbxsLW1wLFztYjdK0PqGeZvQLq6hQtfY7oEomN0HrqRe/vtt7Bt2zamy+iyWCzVhi2OPdhQKlUT4CTSB//K2QhYcLRnw8JcFdj5ImWL67w7m262LDg7sFFWUY+CIiXqaIVap2Bubo6rV/9hugyiYxToRq6oqAj+/kOZLoMQwqCRI0diy5bfmS6D6Bg9QzdyDg4OsLW1ZboMQgiD5s17mekSiB5QoHcBoaFhTJdACGGImZkZQkJCmC6D6AEFehewePFipksghDDE19eX6RKInlCgdwGurq505jIhXdScOS8xXQLREwr0LmLEiJFMl0AI0TMTExOMGzeO6TKInlCgdxGLFi1iugRCiJ4NGjSI6RKIHtHGMl2Eh4cHeDwe7RqnJXbWLPh4qLZ1FUvq273Lm6EIDTJVH/6ir8/X9GcKADcLlMi7RQvZH8WMGTOZLoHoEa1D70LmzJmDpKSjTJdh0KJnchEhNMOV63W4XagKG4EVCx7uJki/VIsft8lQWtH6r1TGHj4K7jb/fsR8SbOvvTPfHOHBHPXubk0V3FViwfuNp+Nt/oIHfgtHrvJ5LMQnyRGzSdasbaceLDz/hlQdmu4ubLz5kjmcHdjIuNy4i02vnmw49WA/8PM1/Gya1svnsRCzqQbxbewfHxpkihcnc8FiQeP4Vc++JuDzWNh7RI5NcXSoS0ex2Wzk599gugyiR9RD70Jee20BBfpDsrNmYd0qS2RcrkX4zMoWXxMh5GBXjBWWfVrVYo82QsjB5n2qcG1q7TIL+HmbtPiej7+vbnHb1Pj1Vuq/u7uonpy1dFMQGmSKYF/Vr3nB3XqN17wz3xyuzmzk3VLCz9sE7y20wIf/V91qbzw0yBQb1vJafU14MKfZz6bh59ZaoM+KNINwGAeLPqpq9UZhVqQZ4tdbYc5yaZs3S0STt7c3AODChQs4ePAgwsJCMXz4CIarIrpEz9CNVHV1NY4cOYK3334Lw4cPAwAMGTIUFhatn4ZFWrdhLQ9f/1ajEcZ21iyMCmy8J45PUmDZp1X4/G3LFq8xZgQHh1KbB9vOBDmmjDfrUD3JpxWIEKo2iZ8QykHSyYc/Qc3OmoX3FlpgznKpRlCHBplqfL7UM7X48P+q8d7C5v8NubuwUXC3+fB4QwDbWTcfPQgNMkXgYFPMWCrVeN2oQFP4NTmlLjZOjuTTCrw6teWT50jLpk6dCgDYt28ffvnlZ0ydOhVeXp545ZWXsWPHDty7d4/hCom2UaAbkYKCAsTGxmLmzBno378f5s59Cdu2bcPNmzdx9KiqZx4QEMBwlYZnVqQZkk8rNMJuVqQZNqzl4Qk/U8Svt1IH1oWsOmyKkyF6pmb42Fmz0N/NpMVnwhey6uDh3voxqy05lKrAmBGqQA/wMcWBlIcP9GmTzLBxT+NQursLG8mb+Aj2NcUTfqZI3sTHrEgzRAg56l78/V5+nosjx1uuIemkAhPDOM2+PucZLt79qvFaEUKO+mc6ZbwZkjfx4edtgnfmmyPAxxQ/bG39yFiiic1mY9q06QCAgwcPqL8ukUiQmJiIZcuWws/PF+PHj8eXX36BixcvMlUq0SIacjdw586dRVJSMpKTk3DlypVWX5eQkIDRo0dj7tx5SEtL02OFhi9yjBnmLG+cTGhnzULkGDP18HWEkINpk8zUvfcDKQpsWMvT6M1PDONgU1zj/58VaYbYJs+Fc/PqECHktPmsuam8W0o49WDDzpoFPo/1SEPRAT6m+H1f4/N4n/4myM2rw/aDcuTdUmLN+hqsXabqlbc27O3hboLln6vCuaF33XADdCBFgV0xVhqfF0CzuoN8TZF0SoGt++UorajXeMwxYylN5uyIfv36AQAuXrzY5mmLmZl/IzPzb6xbtw7dunVDSMgohIeHY9SoUeDz+foql2gJBbqBkUgkSE1NRXJyElJTU1FWVtau9x0+/AeArxESEgIulwuZjHo77VUprdcInmmTzBB3pDGc4pMUyNjDR3hwYy+06aQyAOrnxICqB/zRYgv8fbVOHXo/bZdh6VzzNgN98xc8jWBLPq3Ax0sskHy68T0Ze/gImNzyM/7WiIqU6NOLjdKKOvXnqZDUY+lcczj1YENUpET6pdpWJ6b5eatuABrMncIFn8dS11paUY8r1+vg7sJuc9b68s+rMSvSDOtWWYLPYyH3Wh027KajVx/Gc889BwD444/Edr+npKQEe/fuwd69ewAAgYGBCAsLQ1hYOPr376+TOol2UaAbgGvXriE5WdULP3369ENdQyKRIC0tDSEhIfD19cWZM2e0XKVxCg0y1Zh5Dah6lplXNb/WVog2TFpruCl4+Xkuftgmw5TxZriQperVNvS42xISYKoxee5QqgLL5prji19qAKhGCnrad/wp2pmLtXhyJEfjkULqmVp1kLq7sDEhlIP49VZIOqXA/23WvBmcO4WLX3aqvtbwaKHgrhJ21o098CPHFZgQytEYtcjNq0NokKlGYMfGydU9eT9vE0wZb4ZFs8yxLraGgr2dWCwWXnppLgBg//4DD3h169LT05Geno7//e9/cHZ2RlhYGMLDw/HEE8Ngbm6urXKJFtEz9E7q5MkT+OCDDzBy5AiEho7Cxx9/9NBh3iAxMQEA1L/sRD/un7Tm4W6CNetr4D9Q83666US3lkiq6jUmz+XdUmLV19XqXu+YERwUFnd83XZ8kgIBPqattp13S4mYTTJEzJdAYMXCO/M1/zHv79Z4k9HwaCHppALTJjXWGp+k0BjBAIDPfqrBuwssNCbANXUhqw7LP6/GnOVSzHmGi9Ag6n+0R9++fQEA2dnZEIlua+WaIpEImzdvxuzZszFw4ADMmjUTsbGxWrs+0Q4K9E6itLQUu3fvwquvvgovL0+88MIL+PXXX5Cfn6+1NhISVIE+duxYmJh0bBIWeXjhwRz1pDV3Fzb4PBZWvGqO+vp6jZA6lKrA5Cdbn+1+9bqy2eS5ps+lnXqwW1zj3h5zlksxZgQH3622bDM416yvQYCPaeNSOSFHY8g/cLApPPuawLOvSbMAL7ir1Ajv0op6zFspxXsLLbB2qYX6mvcrrajHoo+q8O4CWqHRHlFRUQAab+C1TSaTITU1FatWvYvg4GCEhYXik08+fuQOB3l0dMvLoKysLKSkpCA5OQkXLlzQeXvl5eU4ffo0goODMXjwYJw/f17nbRq61DO1WDRLs0daKa2HtZXmMix3FzZ+/oSHSmk9cq/V4cxftYhPUqiXczUMPefdUmLZp1Ww5rNw+LjmzPm8W0rweSyNoer75ebVtbhmPULIQW5ex2fLNyitqMeC96vg7sLGy89z8e4CC4il9ci4VIsdh+Qaz77jjsgxYqgp8m7JMWYERz3kDwDvflWNQZ6qGj77uUajjV2Jco3HDA2fOWK+BKFBplg61xz93UwgKlIi43KtenJcQ33teQ7f1bFYLCxcGA2g8QZe1/7991/8+++/+PHHH8Hn8zFyZMh/z97D0K1bN73UQFQo0PWopqYGJ0+eQFJSMlJSknHnzh2915CYmIDg4GDMnDmLAr2d7g/ZQ6mKZhPYPlhkod4Exs/bBJ+/rdpM5fmnzJot52prG9W4I3JMDOM0mxHe4MzF2mahCKhmiO9MkLe4Rrw9QoNMsWiWucYOdHbWLIz0N8VX71hiyZoqdZDevKNEsK8p7KxZcOqhGbClFfWtPutu6eaoYXe5TXEydbvuLmyMGKraxKbpRji3C5XqjXBIy3r3dgUA5OXl4Z9//tF7+5WVlTh06CAOHToIADh8+Ag8PT31XkdXRYGuJwqFAsHBwSgpYXYzh4SEBHz44UeIjIzEkiWLUVdnXHuQ68KmOJnGsrSGQPlutSVuFyoRMMgU8Ufk6iArF6t6k4BquH3N+saeatM90hv8md4YgAdSFFi3yrLVQI9PUiB6ZvMJSR7uLe801x5rl1lAYMXCnOVSTAxTTX77bY8MFZX1EPBZ6s/UYEA/E2T/U4eJYZrD7e4ubPR20hw2v38/9oYRhvzbSvy6loeU0wqEz6zE9x9YImCQKXYlqj4334rVbMtbz74mtBb9ASZNehoAkJBwiOFKgCVL3qQw1zMKdD3hcDjYuHEjpkx5FtXVzTfm0Je7d+/i/PnzGDJkCLy8vPD3338zVouhiI2TY/MXPPh516pDs2F42tWZrTEkbWfNUvdo/bxNcPbvxrAODTLFnGe4GrPme/Vkw9WJrQ7wppu7tObKdc1h9/uXjXVET3s2/AeaqrdsjY2T4/i5WkwI5YDPU4XqkjVVGju5RQjN8Gy0BOtWWaqX4gGqUYr7VwS8MdtUo5e9M0GOuVO4SP+rFlfy6tQ3SQveV/28nhypeu4uKlRqXNvP2+SR19t3BUuXLgMAJCS0f7maLkyfPgNvvPEGozV0RRToejRo0CBs3BiL556bwmgdiYkJGDJkCKZOnYoVK1YwWouheH9dNb56x1JjH/O8W5q9TztrFjas5WHjHhnybimxdpkFdiY09rSfHWeG99dVN3vP/T3ypJOqJV6tOXJcgWFDTNV1TBlvhsOt7NL2IIXFSmyKk2HzFzx1bQ2z2u9nZ83Cr2t5GhvkNL0BqZTWa4xGAM33qb+QVYf+biZY8H4Vvv/AEiteNVcf+HIhq67FUYaGRxjLPq1q9j3SyNnZGQAgEt1GZiZzN+rjx4/HmjVrGGu/K6NA17Pg4GD89ttvePHFFxmr4dChBLz77ipMmzYdK1euhFJJzyQfJO+WEnOWS/HxEgs49WBj7xE5bhaofm7WfBbGDOdAYMXSCHxnBzYEVo37vd//vBloDMRJQg4qKlV/v1GgxBuzzZFxuRbej5s0G6KPT1IgeRMff19RteM/0FS9SxsAjf3XgwY3/p3P09x73rOvCbYfVD0q+PtqHb56xxJiST0yLtdqrLNv+HzODmz1evDQIFOICpXq6z05gtPi1q87E+RY/KI5ft3VeBNw5bpq/fmC96vUB9rk5tUh/VKt+mcKAL2d2BA+wQGLBcxbKaVn5w/w1FNPAVD9fjNl5MiR+OGHHxlrv6uj41MZsm/fPkRHL2Ss/YSEBAwYMBBjx45BTk4OY3UYooZJW849VcPildJ6nDxf26x36edtAmt+42z4G6KWz/duGLpv6oZIiXJxvXrG+P3vb3rtpl9v6VqXcupQWlHf4nK0+yew2VmzMDGMo/5srX0+O2uWRm0tXatBe9pt2Lym6RGwokIljp+rpSBvp8uX/4aNjQ0iIyNx/vw5vbc/ZMhQbN++HVwuHaLDFAp0Bm3ZshnvvPMOI21HR0dj2bK38Ouvv+CDDz5gpAZCiHY4ODjg7NlzKC4uxpAhfnpvv1+/foiP3wcrK6sHv5joDG0sw6Dp02dg2bK3GGn70CHVLNiXXpoLFqv50ZaEEMMxduyTAPS39ryp3r17Y8eOHRTmnQAFOsOio6MxZ85Lem+36TrVhq0iCSGGKTpatZmMrnaHa023bt2xc+cudOvWXa/tkpbRpLhOYPXq1aisFGPXrl16bTchIQGLFi3C5MnP4NNP1+q1bdKIzWaDw+GAy+XC0tISjo6O6ueQ9vY9MHDgAHA4qlnvLBYbVlZWsLYWQCCwVl/DyckJrq6ubbYjFotRXV0NuVyOmppqyGRyyOUy1NTIIJfLIZPJIJfLIJcrIJPJoFAoUF1dhaKiIty7dw9lZWWoqKiAWCyGVCpFTU0NZDIZamtraT8DBtnb28PBwQHl5eU4deqU3toVCATYsWMHnJyc9NYmaRs9Q+9EXn31Fb0OmXl5eeGPPw4DAFxde4P+U9AeExNTWFiYg8fjQSCwhq2tDezte6BnTwf07t0bLi694e7uDnd3d6ZL1ars7GwUFBSgsPAObt26jTt3ClBcXIzS0lJUVFRAKpWiuroaCoWC/nvTkueffwGfffYZtm/fjrfeWqaXNrlcLnbv3oNBgwbppT3SPhToncz06dNw7NgxvbV3+vRpODv3wogRw3Hjxg29tWuoWCwWOBwOLC0tYWNjA3t7ezg6OqFPH1c89thj8Pb2xuOP92O6TIORm5uLvLxryM+/AZFIhKKiQhQXF0MkEqGiogIyGe0M9yAnT56Ci4sLZs2aidTUVL20uWXL7xg5cqRe2iLtR4HeychkMjz//PN6W3ayYsU7mD9/Pr744nN8++23emmzszMzMwOfz4e9vT1cXFzQt+9jGDhwAIYO9YejoyPT5XU5ubm5yMjIQGZmJq5d+xcFBQUoLS1FTU1Nl+/l29ra4tKly5BIJPDy0s82qz/88CPGjx+vl7ZIx1Cgd0ISiQTPPDMZ2dnZOm9r8ODB2L//AICuNezO5XLRvXt3uLm5wc3NHV5envD19YOXlxfTpZEOuH79OjIyMnD58mVcu/Yv8vKuo6SkBApFy3vhG5uIiAh8+20M9u7dizfeWKTz9r788is8++yzOm+HPBwK9E6qrKwMkZERyMvL03lb589fgL29PYKDgyASiXTenj6ZmprCzs4Orq6uGDjQB0888QTGjBnDdFlEDw4c2I9Tp04hKysLN2/eREVFhdFN3jt+/ARcXV0xb95cHD58WKdtLVv2lno2PemcKNA7saKiIkya9DQKCgp02s7q1asxZ85L+OijD/Hzzz/rtC1dYbFYsLKygqurK7y8vBAQEIgxY8bAxsaG6dJIJ1JQUIDDhw/j7NmzuHIlF3fu3IFUKjXIkSk+n4+srGzU1NSgX7/HddrW9OkzaH92A0CB3sndvHkTkyZN0umxqwEBAdi9ew/Ky8vh4zNQZ+1oC4vFgrW1Nfr06QNfXz+EhYUhJCSE6bKIATt58gQSE//A+fPnkJ+fD6lUynRJDzR+/Hj88MOPSEg4hFdffVVn7UyaNAkxMf+ns+sT7aFANwBXr15FVFQkxGKxztpoGHb39x+KoqIinbXTUSwWC7a2tnBzc4O/vz/Cw4UIDAxkuizSBezevRupqam4fPkyCgvvdLoZ94cOJWDgwIFYuPA17N+/XydtjBw5Elu2/K6TaxPto0A3EJcuXdLpWepr1qzB9Okz8O6772LTplidtNEebDYbPXr0gK+vLyZMmICnn57EWC2ENFVcXIz4+DgcP34cOTk5uHfvHmPP5Hk8HnJycgEA/fo9jpqamge8o+PosBXDQ4FuQE6fPq2zs9SHDx+BrVu3oqioCP7+Q3XSRktMTEzg7OyMoUP9ERExCaNGheqtbUIeVUZGOrZu3YrTp0+jsLBQb8/ihcLR2LBhA5KSjmLOnDlav76Xlxd2795D+7MbGAp0A5OcnKSzs9Qbjl/09R2MkpISnbRhYmICNzc3BAYGYtq06RgwYIBO2iEAsrOBtDSgYcMgV1cgJASgpXk6s2fPHuzfvw8XLlxARUWFDtvZC39/fyxZsgS7d2t3y+jevXvjwIGDsLW11ep1ie5RoBsgXZ2l/sUXX2LKlClYtmwpduzYoZVrslgsODj0RFBQIJ577nkMGzZMK9clbSguBnbvVoV5S7y8gPnzAXt7/dbVxYjFYmzd+jsSExORm5urtcdlFhYWuHLlKgDAy8sTEolEK9dt8OKLc+hIZQNFgW6gevd20fo1w8LCsXHjRty6dQvDhj3x0NextbXF4MGDERERicjISC1WSNoklQKJiao/DbO07e0be+TZ2aqwBwAeDxg3TvWHx2Om3i7mxo0b2LQpFikpKcjPz3/o5+8hISHYvHkLjh8/jmnTpmq5SiAwMBC7du3W+nWJ7lGgG6Dr168jJEQ3+yhnZ+fAysoKPj4DUV5e3q73cDhm8PHxwfjx4zBv3ss6qYvcRyptHEq/cUMV1GlpjUHep48qyLOzgfz8xq+5uqpe3/A1Hg8YOrTxe4DqfynkdS4+Pg47duzAhQsXOtR737ZtG4YNG44VK1bg99+3aL2upiMAxLBQoBugxMREvPKKboLz229jEBERgddfj0Z8fHyrr+PxeAgICMBrr72GgIDmy8h2796FkydP4tixYzh6NAl2dnY6qbdLyc5W9b7Pnm39NQ0BXVysen1LvLxUPfdz5xpvAFri76/qwdMz90f23nurkJt7BYGBgYiIiEDfvn01vp+dnY3167/HiRMn2py/wuVy8c8//wJAh266O+rUqdPo1auXTq5NdIcC3QB98803+OqrL3Vy7XHjxuHHH3/CjRs3MGLEcI3v2dnZYeTIkXj99UV47LHHNL539uxZHDt2DMnJScjMzNT43qpV72HevHk6qbfLSEsD1q9v+XteXoClpSrMq6raDvym/P1V75NKVe9r7QZg5kyADuN4JEOG+KG44XEHVGeYjxw5EsOGDcczzzyj8drS0lL88MN6JCb+gZs3b2jMnA8ODsaOHTuRnp6OZ5/VfJ82/fzzLxg7dqzOrk90gwLdAM2fPx+HDh3UybXNzc1x+fLfMDc3h6/vYHC5XIwd+yQWLlwI+/smUe3evQuJiYn466+/NP6xul9QUBB27tTuTNwuJTsb+PBD1d+bPhOvqmrsYT/qQT4N1+TxGm8Ozp5tfOb+5puqGwDSYdeuXUNo6Kg2XxMUFNxq733Lls3YtWsXMjOzEBPzLcaPn4DVq1djw4ZfdVbz4sWLsXjxEp1dn+gGBboBCg0NxbVr/+rs+q0dj1haWoq9e/fgyJGjOHPmdLuvZ2lpidzcK9ossWv58ENVYPfpowr09vbAH5W/vyrQ8/NV7cbE6KddI9PRo4nd3NwQEjIKEydOhH8rN1H39/i1bcyYMfjlF93dMBDdMGW6ANJxugxzAEhMTFAH+rVr1xAfH4/9+/fh+vXrD3W9qqoq7Nq1E88+q5tNcYxadnZj79vVtfWlaLpw9qwq1PPzUV9cDFZ2Nj1PfwgZGRkdev3169dx/fp1bNz4W4tD8w8aEdMGfRzdTLSPeugGJisrC+PGPanTNqysrHDy5CnY2tpizpw5SEo6+sjXjIqKwjffrNNCdV2LeN06LN+zH5UCPjY7dGtzEtufd+/ig6ws/FVWhohevdCHx8NgGxvYmJlpvKZcLkf8f8fkrh4wALP69Gm9AB4P8PLCJwmHIbLiY+2WWAj4tHtYR2hjiamlpSVOnToNOzs7LF/+NrZu3aqFytqWlZUNPp+v83aI9lAP3cBcuaL7oWuJRILff9+ChQujsXLlSq0E+vHjx7VQWdeSkZyCo/sPoaC2FgsHeAH5eS2+riHI/7x7FwBgzeEg9e5d3Ggj/K05HFQoFJidno7VmZmtB7tUCtjbY7SVJdYU38OaT/6HWS/Ohmd/3R7XaSx27dqpletMmTIFdnZ2uHPnjl7CHFB1HoKCgvTSFtEONtMFkI65ciVXL+1s2rQJANC3b19ERUU98vWKi4txVl/Pfo1AxvkL+OR/nyHQwhzCHt0RUCtv9pq/yssRmpqK0NRUdZgDQIVCgfjhw3Fx7FjEDR+O97291X/ihg9HWVQUfJts65kvlWJ2ejrcDh5EbMP69KbOnkWApweEVpYQVpRjzZdfY++BQ7r42Ebn5MmTj3wNoXA0PvzwIwDAqlXvPvL12isnh4bdDQ0FuoHRRw8dAAoLC/H9998BAL75Zh2EwtGPfM20tD8f+RpdRfq2HXCWK5BeXYNsDhe4eVP9vXypFC9mZMD38GGNIG/K9/BhpN29i1E9emD1gAHqP4NtbBB54kSL72sI9vtvEFBcDHHfvkivqkFS7lV4yGqQce6C1j+zMXrUkamoqChs2LABALBhw684cuSINspql6ysLL21RbSDnqEbmODgIIj+e/6pD998s07dQ//555+xfv163Lv3cBNy3NzckJZ2TJvlGR1xpQSvzXwRa9n14JuwIQgMVM0yLy5GvlSKD7KysLEDkxNtOBwM/q83Xi6X468ObEQyqkcPvO/tjVE9eqhmuffpA5w9ixyZHBg+HLFiKd5ZupieqbeiPcvVWmJpaQkfHx/MnTsPY8aMAaDbvSda4+09AImJiXptkzwaCnQDUlVVBQ+P/npvt+kyttLSUpw7dw4nThzXGEJ3dHRCr17ObV7HxaU3bTDzAHsXL0Xc2fOIFPAQI6lGlIM9ZigVWHf1Klbft2GPvkQ4O+NrX1/08fbG3kopYi9eRpSAhyRTMwinvoBZU59jpC5jcH+P29bWVmOpmkh0G++//75ee+ZN3bx5i5F2ycOhQDcg58+fY+ywkxdeeAGvv/46nJ1pO0idWb8eew8cQmx5JVYOD0Z+QQFyLl3EN1euoFyhYLo6zHZzw+fh4ThmZQ3BP1cRW14J4aCBiFy7hnrpWpaVlYnt27cjNjaW0ToOHz4CT09PRmsg7UeBbkB+/30LVqxYwWgNQ4YMwZNPjoOPj0+L3zcxMYGPjw/Mzc31XJmB270by7/7EVECHhAYBNHZs+hdq8DQgweYrkzD8fBwuDk6Idm+B/yvq2bdx3B5+H77ZoYrMyzl5eVIS0tDcnISCgsL1V8vLCxEfksTExny9ddfY/Jk3W0xS7SLlq0ZEH1NiGvL+fPncf78eY2vCQQCjBo1CkLhaISHh1OYd1RxMZCYCHGdEjE1CngcO46kMjH2uToixN4eaTreRKS9rDkc+NnaolZWg6PnL+KoJQ98qRQ5smLVZ6Dz1dvNxsYGkyZNwqRJk5Cbm4vU1FSkpqZ0qjAHVBvMTJ7MdBWkvSjQDUhurn6WrLWHu7s7wsPDIRSORnBwMNPlGLb8fEAqRY5MDk8HB0TV1mA2zwECNhtv9O/faQJ9tpsbLE1MAADfOXSDyGcQYo6kQGDCVu0qRwe4PBQPDw94eHhg/vz5kEgkOHbsGP78MxWpqakoKipitLbs7BxG2ycdQ0PuBmTgwAGoqKhgrP3g4GCEhwshFArh7u7OWB1G5+xZLHhzOaK7WQPu7ki6nIkogRWcOar77T4HD7a5SYy+XH/qKfT575x0kaIWe7kWEFar6orhCfD9lo0MVmecsrOz8eefqUhJSenwFrLaIBAIkJlJy9cMBfXQDURxcbHew9za2hqhoaEIDxciLCyMtoHUFR4PGdU1iC1nQ/zvdWSUV2KWrUD97Tf69cPiixcZLBAIsbdXhzkAOHNMEZuXjyQ2GwEWXORUySGulNDkOC3z8vKCl5cXFix4DZWVlTh2LO2/4flUne/nDgBisRh37tyBo6Ojztsij44C3UDoa7i9b9++EAqFEApHIzAwUC9tdnmurmABSJJU4Xv/IYhm10PAbtzzababG1ZnZqKCwZnub/Rvvlxy81NPIuPEScSUVEDQg9fCu4g28fl8TJjwFCZMeAqAaiZ8Sooq3M+d090ujNnZWRToBoIC3UDocsvXJ554AkKhEGPHPgkXl0c/SIJ0TEGlBDP7uCCnqBjO3bshPVMOT27jgSo2HA4inJ01tmUdZGODfKlUJyF//0Q8Vx4PEc7N9xjIuVMIIc8S6XX18Hx6AiorK6mHrkfe3gPg7T0A0dHRqKiowLFjx5Camoo//0zFvXv3tNZOdnYOwsOFWrse0R0KdAOhzR66jY0NwsLCEB4uRGhoKKys6B9hJn0Z8x3MuOZYaW+L6YcOQ2jafEfmb/z8MNvNDX14PPXQ96iUFJ1MmPszLKzx73fvagy1NyWSKzDp5h3sezYCsRIJYn78BWs/WKX1esiDWVtbY+LEiZg4cSIA4O+//0ZKSgr+/DO12aqUjqItYA0HBbqBeNQla4899hhGjx6N8HAhAgICtFQV0YbKSin+KbiD+noleplzMdvjcaCoUOM1NhyOagtWPWu1TR4PUd1skcE1Q0z2FaTfK0EvJxqW7SwGDhyIgQMHYtGiReo176mpKUhLS0NJSUmHrpWdTYFuKCjQDcSlS5c6/J5hw4Zj9Gghxo4dSzu8dWJDfAeh6NYtiIqLsdmhG3JMTdH2JrqdgKsrUFKKzb0cMKNSAgGfD49+/ZiuirSg6Zp3QPVvSUPv/WI7Jlvm5+ejuroaFhYWui6VPCIKdANw48aNdr3Ozs4Oo0aFYvRoIUaNCgWvlaFS0rkM9R2E6ydPQaiowYyySuBeFjZ3t2a6rLYVFyPm1h2I7pUgOuppbBQVImriBKarIu0waNAgDBo0CIsXL0Z5ebl6U5u0tDSUlZW1+J7s7CwMGTJUz5WSjqJANwBtDbf369cP4eFCjB4txNCh/q2+jnReS955DwOsVDdft6trEMXlMFxROxQXw9PZCel3ipBz6zZ69XLBjJcX4FzaUaYrIx1gY2ODyMhI9RkRFy5cUK97v3z5svp1WVnZFOgGgALdANw/IW7EiBHqWelOTk4MVUW0xbGnA27n52NNVTWiPPphVlUl0yW1S2S/vhBfvYq4i5dR8U8e+DTD3eD5+fnBz88PS5a8idLSUqSmpiA5OQW3bt1kujTSDhToBuDu3SI888yzEAqFCAkJoaF0IzPt2cn48L0PYcVmQ9jLCWtOnsEsG77G0rXORqSoxScpx/B9NxvsvS4Ci2eFyKdpyN2Y2NnZYfLkZ+hwFgNCgW4APv74E6ZLIDo00dUF+TZ8iJVKJBUVI72qRnXqWicmqq2FSFqDmCog0NIc/EEDEP3KXKbLIqRLa77glRCiVz/uicdesRTWJibAf3u289md+1fT2dQUYpkcOTIFAi24SMo4j5gff2G6LEK6tM79rwYhXUDo433BYgF7KiRILi3Hpz27wZljCpGilunSWtRQ18phQSiorcUnxWUoKCtD4FA/hisjpGujQCeEYf3Cw+BhZgYWC6ivq4OYY4blhSWIKWXuZL22bCwX45MyMZyteKioU0JgwkaAtycChlCgE8IkCnRCmGZvj7WTn0aAhTkE1dUQeHmikoVO20PPlSmQUSOD6Ew6PLlmCOjjiu+++5bpsgjp8ijQCekERCGhEJmYINDSHLh0CTmKWjhbmDNdVnM8Hjz69wNqVTcbXg72EPF4EBXcYbgwQggFOiGdgOdgH9zmmuOoXIEZt4vgyWZjbdTTiKkDYkrKmS4PABBbJcMnMMVKaQU8zczw2p1ipAuscbvoLjz7P850eYR0eRTohHQS33/1OXIrpQhw7AmxUom9Bw4hrrgEeyVVTJcG8Hj4v3tliL+ciSRJFcQWFgjwHYSMvy5j5dLFTFdHCAEFOiGdhmf/x7H5p+8g5vMh5nDQi2MKsbQKvbrZIUcmZ7Q2sY8PPNgs1APwHDkCYi4XtwuLsPmn7yAcNZLR2gghKrSxDCGdSMAQP0x+egLElRJkpKUhUlAFWFjAs2d3fJJ9BZ5cM0QJ9LfFao5MjtgaOdZWVMCDy4GHY0/E2dhh8tNPQcC3opnthHQiFOiEdDK3RHcQf/AQrLhcFJRXwrNaBvHwICSf/QtJkmoEWpjDmaP7X12xUokFBcVgWZhDnJmpmt2elw+n/QdhLeDDydERM194Tud1EELah4bcCelkol+ZC49+j0MikyGgux34bDbiMnPAN1WF+F6xBAAgq9dN+w3L5eLEEgg4pqivr0eSpArgWSJgiB8kEgnq64G1q1fppgBCyENh1dfX6+ifBULIo9h74BDitm4HX1SA6G7WEPX3QOyJ05hlw4fQyhK9T2fApb4O/lpc3napRoaC7o5I6eOMHJkcn1RWIdrOGoFsFj6xskYll4vIiRPo7HNCOiEaciekk4qaOAG9nBwRt/I9rCkuQ8bNVAR0t0OuXAEhAIcejjBjs9FXwEN0Nxv1xLmOnNImUtRCrFTCk2uGvWIJLpVUQKBUgm/CRq4lD70UdVhxswABAj56DRyM2RPH03NzQjopGnInpBPjW/FxtFKKyv9Cl89iI92Eg6Q+7ojo0xssExPkyBQAgCRJFZYXlWDG7SKIlco2rytWKjHjdhHC8kWq4XQAcdJq9LIRwKN7N2Q4uyC9QgxIqxBgYY5KPh9nzp0H34qv889MCHk4FOiEdGKe/R/Hvl1b4dTTATkyOZKL7yHjbjGQmYmVfV0R0KM7gtxdIQ4OhjBkBAqU9RArlZh5u6jN675WUAyxGQcCLheBwYGAlxdGu7nC2YyD7/jmwD//IONeKTKqa5BRXQN+Twds+el72kCGkE6MnqETYiBEcfEQxcWBX1mJZGk1YsvE6p64gM3G/xy6IceUg03FJfAwM8NmB7uWL2RvjwXF5Th7/ToirCwRaGGOFUUlGteKFFghsrczKoePgPO4J+Hs5Kivj0kIeUgU6IQYmNAJESgoVPXAPR17gm/ChqCuDh6yGkR3s8FesQTJHC7EdUqgSopvulmjm4kJqi0ssLRCCrFUCkFNDcJ5FogSWCGGzUFubR3EilpUsljIuXETAODk2BOpB+OY/KiEkA6gIXdCDMy+7Vuw8OWX4NHvceTcKUTG7QLU9++PqK+/xBquJVYUlSDpdgFQXg4Bn4/k7g6Avz/Od7OHoKwMkFYhvaoGK4pK8Jq9I6K++Az1Li7IuHkLOTduwsmxJxa+/BL2bdvM9EclhHQA9dAJMRIRU2eiQlyJXjbWQGERMspUh7rscOmJweZc5MkVGHejAAAQ4NkflUolKsSVsBbwsenH7yHg628HOkKI9lGgE2IEamQyXM7MxtV/r6m/Zl0gQkBxERzy8lRfcHVFxahROMYyQUWFWP26fo/1hc8AL5hzufoumxCiRRTohBBCiBGgZ+iEEEKIEaBAJ4QQQowABTohhBBiBCjQCSGEECNAgU4IIYQYAQp0QgghxAhQoBNCCCFGgAKdEEIIMQIU6IQQQogRoEAnhBBCjAAFOiGEEGIEKNAJIYQQI0CBTgghhBgBCnRCCCHECFCgE0IIIUaAAp0QQggxAhTohBBCiBGgQCeEEEKMAAU6IYQQYgQo0AkhhBAjQIFOCCGEGAEKdEIIIcQIUKATQgghRoACnRBCCDECFOiEEEKIEaBAJ4QQQowABTohhBBiBCjQCSGEECNAgU4IIYQYAQp0QgghxAhQoBNCCCFGgAKdEEIIMQIU6IQQQogRoEAnhBBCjAAFOiGEEGIEKNAJIYQQI0CBTgghhBgBCnRCCCHECFCgE0IIIUaAAp0QQggxAhTohBBCiBGgQCeEEEKMAAU6IYQQYgQo0AkhhBAjQIFOCCGEGAEKdEIIIcQIUKATQgghRoACnRBCCDECFOiEEEKIEaBAJ4QQQowABTohhBBiBCjQCSGEECNAgU4IIYQYAQp0QgghxAhQoBNCCCFGgAKdEEIIMQIU6IQQQogRoEAnhBBCjAAFOiGEEGIEKNAJIYQQI0CBTgghhBgBCnRCCCHECFCgE0IIIUaAAp0QQggxAhTohBBCiBGgQCeEEEKMAAU6IYQQYgQo0AkhhBAjQIFOCCGEGAEKdEIIIcQIUKATQgghRoACnRBCCDECFOiEEEKIEfh/Q3XM3vhvt1UAAAAASUVORK5CYII=;" parent="1" vertex="1">
          <mxGeometry x="130" y="80" width="530" height="530" as="geometry" />
        </mxCell>
      </root>
    </mxGraphModel>
  </diagram>
</mxfile>
